<?xml version="1.0" encoding="utf-8"?>
<!-- Generator: Adobe Illustrator 19.0.0, SVG Export Plug-In . SVG Version: 6.00 Build 0)  -->
<svg version="1.1" id="Layer_1" xmlns="http://www.w3.org/2000/svg" xmlns:xlink="http://www.w3.org/1999/xlink" x="0px" y="0px"
	 viewBox="94 -3.9 799.9 799.9" style="enable-background:new 94 -3.9 799.9 799.9;" xml:space="preserve">
<style type="text/css">
	.st0{fill:#E03D14;}
	.st1{fill:#FFAE00;}
	.st2{fill:#FFEBBF;}
	.st3{font-family:'Arial-BoldMT';}
	.st4{font-size:42.3994px;}
	.st5{fill:#FC6E4B;}
	.st6{fill:#335E59;}
	.st7{fill:#FF9D85;}
</style>
<g id="Layer_2">
	<g id="XMLID_1_">
		<path id="XMLID_169_" class="st0" d="M303.9,391.7c-2.3-1.9-5.3-2.4-8.4-1.7v7.2c1.7-1.2,3.4-1.5,4.4-0.7c1.5,1.2,0.7,4.6-1.7,7.5
			c-0.8,1-1.8,1.9-2.7,2.5v11.8c9,3.8,19,3.3,23.7-1.1c-1.9,2.5,6.8-11.6,4.1-9.9c-6.9,4.6-15.8,6.5-23.8,4.7
			c1.5-0.9,2.9-2.1,4.1-3.6C308.3,402.9,308.4,395.3,303.9,391.7z M295.5,390c-2.9,0.7-5.8,2.5-8.1,5.2c-1.5,1.8-2.5,3.8-3.1,5.8
			c-3.1-5.3-4.7-12.6-4.1-22.2c-7.1,21.5,3.2,34.4,15.3,39.5v-11.8c-1.7,1.2-3.4,1.5-4.4,0.7c-1.5-1.2-0.7-4.6,1.7-7.5
			c0.8-1,1.8-1.8,2.7-2.5V390L295.5,390z"/>
		<g id="XMLID_165_">
			<path id="XMLID_168_" class="st1" d="M120.8,459.2h255c5,0,9,4.1,9,9v155.1c0,5-4,9-9,9h-255c-5,0-9-4.1-9-9V468.2
				C111.7,463.3,115.8,459.2,120.8,459.2z"/>
			<rect id="XMLID_167_" x="111.7" y="580.7" class="st2" width="273" height="32.1"/>
			<path id="XMLID_166_" class="st2" d="M133.7,475.2h52.1c2.7,0,5,2.2,5,5v34.4c0,2.7-2.2,5-5,5h-52.1c-2.7,0-5-2.2-5-5v-34.5
				C128.7,477.4,131,475.2,133.7,475.2z"/>
		</g>
		<g id="XMLID_74_">
			<rect id="XMLID_164_" x="488.9" y="307.5" class="st1" width="387.3" height="176"/>
			<rect id="XMLID_163_" x="499.4" y="319.6" class="st2" width="366.3" height="152"/>
			<path id="XMLID_162_" class="st1" d="M821.6,307.5h54.6v54.6C846,362.1,821.6,337.7,821.6,307.5z"/>
			<path id="XMLID_161_" class="st1" d="M543.5,483.6h-54.6V429C519,429,543.5,453.4,543.5,483.6z"/>
			<path id="XMLID_160_" class="st1" d="M682.5,452.8c31.5,0,57.2-25.7,57.2-57.2s-25.7-57.2-57.2-57.2s-57.2,25.7-57.2,57.2
				S651,452.8,682.5,452.8z"/>
			<text id="XMLID_159_" transform="matrix(1 0 0 1 506.396 365.3708)" class="st1 st3 st4">100</text>
			<text id="XMLID_158_" transform="matrix(1 0 0 1 789.7261 467.6794)" class="st1 st3 st4">100</text>
			<path id="XMLID_75_" class="st2" d="M691.4,360.2c3.1,0.8,5.6,2.2,7.6,4.2c2.8,2.7,4.6,6.3,5.4,10.9l-11.5,1.5
				c-0.3-1.6-0.8-3-1.6-4.1L691.4,360.2L691.4,360.2z M691.4,388.4c5.2,1.8,8.9,3.9,11,6.5c2.6,3.1,3.9,7.1,3.9,12.1
				c0,5.5-1.6,10.1-4.9,13.8c-2.6,2.9-5.9,4.9-10,6.1v-10.8c0.6-0.4,1.2-1,1.7-1.6c1.4-1.7,2.1-3.7,2.1-5.9c0-2-0.6-3.8-1.8-5.2
				c-0.5-0.6-1.2-1.2-2-1.8V388.4z M680.9,417v-19c-1-0.3-2-0.6-2.9-1v-13.7c0.8,0.7,1.8,1.3,2.9,1.8v-15.7
				c-1.1,0.4-2.1,0.9-2.9,1.6v-11.1c0.9-0.2,1.9-0.4,2.9-0.5v-4.5h6.6v4.5c1.4,0.2,2.6,0.4,3.8,0.7v12.4c-0.9-1.4-2.2-2.4-3.8-3.1
				v17.7c1.4,0.4,2.6,0.8,3.8,1.2v13.2c-1-0.6-2.3-1.2-3.8-1.6v17.7c1.5-0.3,2.7-0.8,3.8-1.6v10.8c-1.2,0.3-2.5,0.6-3.8,0.8v8.5
				h-6.6v-8.3c-1-0.1-2-0.3-2.9-0.5v-12.4C678.9,415.8,679.9,416.5,680.9,417z M678,397c-4.5-1.7-7.8-3.9-10.1-6.7
				c-2.8-3.4-4.2-7.6-4.2-12.5c0-5,1.6-9.1,4.7-12.5c2.5-2.7,5.7-4.5,9.6-5.4V371c-0.5,0.4-0.9,0.9-1.4,1.4
				c-1.1,1.5-1.6,3.1-1.6,4.8c0,1.6,0.5,3.1,1.4,4.5c0.4,0.6,0.9,1.1,1.5,1.6L678,397L678,397z M678,427.4c-3.9-0.9-7.2-2.7-9.8-5.3
				c-3.3-3.3-5.3-7.9-6.3-13.8l11.8-1.3c0.5,2.4,1.4,4.5,2.7,6.2c0.5,0.6,1,1.2,1.5,1.7L678,427.4L678,427.4z"/>
		</g>
		<polygon id="XMLID_73_" class="st0" points="422,656.3 459.1,656.3 459.1,593.6 567.4,593.6 560.2,656.3 602.9,656.3 602.9,558.2 
			375,558.2 392.2,655.6 		"/>
		<path id="XMLID_72_" class="st5" d="M307.2,429.8c-24.3,116,48.4,206.9,81.2,226.4H422l-0.3-44.9c25.2,9.7,58.6,15.2,93.7,13.3
			v31.5h44.8c37.3-21.5,92.7-115.2,151.7-122.7c14.3-1,26.1-17.1,28.5-38c0.9-5.4,1.1-10.9,0.2-16.4c-1.8-11.3-5-19.6-9.3-25.5
			c-5.5-7.8-12.8-12.4-20.8-12.5c-22.9-0.3-44.7-38.7-54.3-53.4C578.6,270.5,342.8,259.9,307.2,429.8z"/>
		<path id="XMLID_71_" class="st0" d="M514,377.3c5.3,41,51.2,57.9,108.7,18.4c37.4-25.7,46-38.2-1.8-51
			C584.3,335,505.8,313.9,514,377.3z"/>
		<path id="XMLID_70_" class="st0" d="M715.6,526.9c12,0,21.7-17.8,21.7-39.5c0-21.8-9.8-39.5-21.7-39.5c-12,0-21.7,17.8-21.7,39.5
			C693.9,509.2,703.6,526.9,715.6,526.9z"/>
		<path id="XMLID_69_" class="st5" d="M709.6,496.5c2.5,0,4.5-5,4.5-11.2s-2-11.2-4.5-11.2s-4.5,5-4.5,11.2
			C705.1,491.4,707.1,496.5,709.6,496.5z"/>
		<path id="XMLID_68_" class="st6" d="M450.7,323c37.1-9.6,88,5.5,98.2,10.1l7.5-10.8c-6.9-5.7-64.2-23-105.7-11.6V323z"/>
		<path id="XMLID_67_" class="st0" d="M551.6,329.2l4.8-6.9c-6.9-5.7-64.2-23-105.7-11.6v6.4C497.3,309.8,530.1,321,551.6,329.2z"/>
		<path id="XMLID_66_" class="st6" d="M621.7,428.8c5,0,9.1-4.1,9.1-9.1s-4.1-9.1-9.1-9.1s-9.1,4.1-9.1,9.1
			C612.6,424.7,616.7,428.8,621.7,428.8z"/>
		<path id="XMLID_65_" class="st5" d="M519,376.7c4.6,35.8,44.7,50.5,94.8,16c32.6-22.4,40.1-33.3-1.6-44.4
			C580.3,339.8,511.9,321.3,519,376.7z"/>
		<g id="XMLID_61_">
			<path id="XMLID_64_" class="st1" d="M491.7,314.4c26.6,0,48.3-21.7,48.3-48.3c0-26.6-21.7-48.3-48.3-48.3
				c-26.6,0-48.3,21.7-48.3,48.3C443.4,292.7,465.1,314.4,491.7,314.4z"/>
			<path id="XMLID_63_" class="st2" d="M491.7,306.9c22.5,0,40.9-18.4,40.9-40.9s-18.4-40.9-40.9-40.9s-40.9,18.4-40.9,40.9
				C450.8,288.6,469.1,306.9,491.7,306.9z"/>
			<path id="XMLID_62_" class="st1" d="M477.7,274c2.2,2.6,4.5,4.5,6.8,5.8s4.6,1.9,7,1.9c1.9,0,3.5-0.6,4.8-1.7s1.9-2.5,1.9-4.2
				c0-1.8-0.5-3.3-1.6-4.2c-1.1-1-3.5-2-7.3-3c-5.8-1.6-9.9-3.6-12.2-6c-2.3-2.4-3.5-5.7-3.5-9.8c0-5.1,1.6-9.3,4.8-12.4
				c3.2-3.2,7.7-5.1,13.5-5.7v-5.4h5v5.3c2.2,0.2,4.5,0.8,6.6,1.6c2.2,0.8,4.3,1.9,6.4,3.3l-4.9,11c-1.7-1.5-3.5-2.6-5.4-3.3
				c-1.8-0.8-3.7-1.1-5.5-1.1c-1.9,0-3.4,0.4-4.5,1.3c-1.1,0.9-1.7,2-1.7,3.4c0,1.4,0.5,2.6,1.5,3.4c1,0.9,3,1.7,5.9,2.4l0.5,0.1
				c6.4,1.7,10.5,3.6,12.5,5.7c1.3,1.4,2.4,3.1,3.1,5s1.1,4.1,1.1,6.4c0,5.4-1.6,9.8-4.9,13.3s-7.6,5.6-13,6.2v9.4h-5v-9.3
				c-3.7,0-7-0.7-10.1-2s-6-3.4-8.9-6.1L477.7,274z"/>
		</g>
		<g id="XMLID_9_">
			<path id="XMLID_12_" class="st1" d="M427.5,230.2c26.6,0,48.3-21.7,48.3-48.3s-21.7-48.3-48.3-48.3c-26.6,0-48.3,21.7-48.3,48.3
				S400.9,230.2,427.5,230.2z"/>
			<path id="XMLID_11_" class="st2" d="M427.5,222.8c22.5,0,40.9-18.4,40.9-40.9s-18.4-40.8-40.9-40.8s-40.9,18.4-40.9,40.9
				S405,222.8,427.5,222.8z"/>
			<path id="XMLID_10_" class="st1" d="M413.5,189.9c2.2,2.6,4.5,4.5,6.8,5.8s4.6,1.9,7,1.9c1.9,0,3.5-0.5,4.8-1.7
				c1.3-1.1,1.9-2.5,1.9-4.2c0-1.8-0.5-3.3-1.6-4.2c-1.1-1-3.5-2-7.3-3c-5.8-1.6-9.9-3.6-12.2-6c-2.3-2.4-3.5-5.7-3.5-9.8
				c0-5.1,1.6-9.3,4.8-12.4c3.2-3.2,7.7-5.1,13.5-5.7v-5.4h5v5.3c2.2,0.2,4.5,0.7,6.6,1.6c2.2,0.8,4.3,1.9,6.4,3.3l-4.9,11
				c-1.7-1.5-3.5-2.6-5.4-3.3c-1.8-0.7-3.7-1.1-5.5-1.1c-1.9,0-3.4,0.4-4.5,1.3c-1.1,0.9-1.7,2-1.7,3.4s0.5,2.6,1.5,3.4
				c1,0.9,3,1.7,5.9,2.4l0.5,0.1c6.3,1.7,10.5,3.6,12.5,5.7c1.3,1.4,2.4,3.1,3.1,5s1.1,4.1,1.1,6.4c0,5.4-1.6,9.8-4.9,13.3
				s-7.6,5.6-13,6.2v9.4h-5v-9.3c-3.7-0.1-7-0.7-10.1-2s-6-3.4-8.9-6.1L413.5,189.9z"/>
		</g>
		<g id="XMLID_5_">
			<path id="XMLID_8_" class="st1" d="M576.8,248c26.6,0,48.3-21.7,48.3-48.3s-21.7-48.3-48.3-48.3c-26.6,0-48.3,21.7-48.3,48.3
				C528.6,226.3,550.3,248,576.8,248z"/>
			<path id="XMLID_7_" class="st2" d="M576.8,240.6c22.5,0,40.9-18.4,40.9-40.9s-18.4-40.9-40.9-40.9s-40.9,18.4-40.9,40.9
				C536,222.3,554.3,240.6,576.8,240.6z"/>
			<path id="XMLID_6_" class="st1" d="M562.9,207.7c2.2,2.6,4.5,4.5,6.8,5.8c2.3,1.3,4.6,1.9,7,1.9c1.9,0,3.5-0.6,4.8-1.7
				c1.3-1.1,1.9-2.5,1.9-4.2c0-1.8-0.5-3.2-1.6-4.2c-1.1-1-3.5-2-7.3-3c-5.8-1.6-9.9-3.6-12.2-6c-2.3-2.4-3.5-5.7-3.5-9.8
				c0-5.1,1.6-9.3,4.8-12.4c3.2-3.2,7.7-5.1,13.5-5.7V163h5v5.3c2.2,0.2,4.5,0.8,6.6,1.6c2.2,0.8,4.3,1.9,6.4,3.3l-4.9,11
				c-1.7-1.5-3.5-2.6-5.4-3.3c-1.8-0.8-3.7-1.1-5.5-1.1c-1.9,0-3.4,0.4-4.5,1.3c-1.1,0.9-1.7,2-1.7,3.4s0.5,2.6,1.5,3.4
				c1,0.9,3,1.7,5.9,2.4l0.5,0.1c6.4,1.7,10.5,3.6,12.5,5.7c1.3,1.4,2.4,3.1,3.1,5c0.7,1.9,1.1,4.1,1.1,6.4c0,5.4-1.6,9.8-4.9,13.3
				c-3.3,3.5-7.6,5.6-13,6.2v9.4h-5v-9.3c-3.7-0.1-7-0.7-10.1-2.1c-3.1-1.3-6-3.4-8.9-6.1L562.9,207.7z"/>
		</g>
		<path id="XMLID_4_" class="st5" d="M726.7,496.5c2.5,0,4.5-5,4.5-11.2s-2-11.2-4.5-11.2s-4.5,5-4.5,11.2
			C722.3,491.4,724.3,496.5,726.7,496.5z"/>
		<path id="XMLID_3_" class="st7" d="M317.8,524.5c-20.5-62.5-2.4-170.8,66.1-189.9C319.2,379.1,315.6,487.5,317.8,524.5z"/>
		<path id="XMLID_2_" class="st7" d="M524.5,385.7c-5.9-18,2.4-44.7,27.2-44.3C530.5,351.2,523.8,375,524.5,385.7z"/>
	</g>
</g>
</svg>
