<?xml version="1.0" encoding="utf-8"?>
<!-- Generator: Adobe Illustrator 19.0.0, SVG Export Plug-In . SVG Version: 6.00 Build 0)  -->
<svg version="1.1" id="Layer_1" xmlns="http://www.w3.org/2000/svg" xmlns:xlink="http://www.w3.org/1999/xlink" x="0px" y="0px"
	 viewBox="94 -3.9 799.9 799.9" style="enable-background:new 94 -3.9 799.9 799.9;" xml:space="preserve">
<style type="text/css">
	.st0{fill:#FC6E4B;}
	.st1{fill:#FFFDFA;}
	.st2{fill:#FFB8A6;}
	.st3{fill:#71B8B0;}
	.st4{fill:#49807A;}
	.st5{fill:#335E59;}
	.st6{fill:#FFAE00;}
	.st7{fill:#FFEBBF;}
	.st8{fill:#45706B;}
</style>
<g id="Layer_2">
	<g id="XMLID_127_">
		<g id="XMLID_157_">
			<path id="XMLID_162_" class="st0" d="M366.8,70h218.6c29.1,0,53,23.8,53,53v491.8c0,29.1-23.8,53-53,53H366.8
				c-29.1,0-53-23.8-53-53V123C313.8,93.9,337.7,70,366.8,70z"/>
			<rect id="XMLID_161_" x="323.8" y="123" class="st1" width="304.6" height="500.8"/>
			<rect id="XMLID_160_" x="444.7" y="104.1" class="st2" width="62.8" height="6.3"/>
			<path id="XMLID_159_" class="st2" d="M476.1,84.7c3.3,0,5.9,2.7,5.9,5.9c0,3.3-2.6,5.9-5.9,5.9s-5.9-2.7-5.9-5.9
				C470.2,87.4,472.8,84.7,476.1,84.7z"/>
			<path id="XMLID_158_" class="st2" d="M476.1,632c7.5,0,13.5,6.1,13.5,13.5s-6.1,13.5-13.5,13.5c-7.5,0-13.5-6.1-13.5-13.5
				S468.7,632,476.1,632z"/>
		</g>
		<g id="XMLID_141_">
			<path id="XMLID_153_" class="st3" d="M551.4,303.2h6.4c18.3,0,19.1-20.7,0-20.7h-6.4v1.7c4.8,0,8.7,3.9,8.7,8.7
				c0,4.8-3.9,8.7-8.7,8.7V303.2z M400.8,303.2h150.6v-1.7c-4.8,0-8.7-3.9-8.7-8.7c0-4.8,3.9-8.7,8.7-8.7v-1.7
				c-50.2-0.1-100.4-0.1-150.6,0v1.7c4.8,0,8.7,3.9,8.7,8.7c0,4.8-3.9,8.7-8.7,8.7V303.2z M394.4,303.2h6.4v-1.7
				c-4.8,0-8.7-3.9-8.7-8.7c0-4.8,3.9-8.7,8.7-8.7v-1.7h-6.4C375.4,282.4,376.1,303.2,394.4,303.2z"/>
			<path id="XMLID_152_" class="st3" d="M487.7,211.6c-4.8,0-8.7,3.9-8.7,8.7s3.9,8.7,8.7,8.7c4.8,0,8.7-3.9,8.7-8.7
				C496.4,215.5,492.5,211.6,487.7,211.6z"/>
			<path id="XMLID_151_" class="st3" d="M554.8,290.4l-59.3-66.3c-1.4-1.5-3.7-1.7-5.3-0.3l0,0c-1.5,1.4-1.7,3.7-0.3,5.3l59.3,66.3
				c1.4,1.5,3.7,1.7,5.3,0.3l0,0C556.1,294.3,556.2,292,554.8,290.4z"/>
			<path id="XMLID_150_" class="st3" d="M464.6,211.6c4.8,0,8.7,3.9,8.7,8.7s-3.9,8.7-8.7,8.7c-4.8,0-8.7-3.9-8.7-8.7
				S459.8,211.6,464.6,211.6z"/>
			<path id="XMLID_149_" class="st3" d="M397.4,290.4l64.7-72.3c1.4-1.5,3.7-1.7,5.3-0.3l0,0c1.5,1.4,1.7,3.7,0.3,5.3L403,295.4
				c-1.4,1.5-3.7,1.7-5.3,0.3l0,0C396.2,294.3,396.1,292,397.4,290.4z"/>
			<path id="XMLID_142_" class="st3" d="M526.4,309.3h30.4l-8,45.8c-1.7,9.9-6.5,17.3-21.7,17.3h-0.7v-13.8c2.2-1.1,3.8-3.2,4.2-5.7
				c0.7-5.2,1.4-10.5,2.2-15.7c0.7-5.2,1.4-10.4,2.2-15.7c0.5-3.5-2.2-6.4-6-6.4l0,0c-0.8,0-1.7,0.1-2.4,0.4v-6.2H526.4z
				 M501.4,309.3h25v6.2c-2.7,0.9-4.9,3.3-5.2,6c-0.5,5.2-1.1,10.5-1.7,15.7c-0.5,5.2-1.1,10.5-1.7,15.7c-0.4,3.5,2.1,6.4,5.6,6.4
				l0,0c1,0,2-0.3,2.9-0.7v13.8h-25v-13.3c2.7-0.7,4.9-3.2,5.1-6.2c0.4-5.2,0.8-10.5,1.2-15.7c0.4-5.2,0.8-10.4,1.2-15.7
				c0.3-3.5-2.6-6.4-6.4-6.4l0,0c-0.4,0-0.7,0-1.1,0.1v-5.9H501.4z M476.1,309.3h25.2v5.9c-3.3,0.5-6,3.1-6.1,6.3
				c-0.2,5.2-0.5,10.5-0.7,15.7s-0.5,10.5-0.7,15.7c-0.2,3.5,2.5,6.4,6,6.4l0,0c0.5,0,1.1-0.1,1.6-0.2v13.3h-25.2v-13.1
				c3.4,0,6.3-2.9,6.3-6.4c0.1-5.2,0.2-10.5,0.2-15.7c0.1-5.2,0.2-10.4,0.3-15.7c0.1-3.5-3-6.4-6.8-6.4l0,0l0,0L476.1,309.3
				L476.1,309.3z M450.8,309.3h25.3v5.9c-3.8,0-6.9,2.9-6.8,6.4c0.1,5.2,0.2,10.5,0.2,15.7c0.1,5.2,0.2,10.5,0.2,15.7
				c0.1,3.5,2.9,6.4,6.3,6.4l0,0l0,0v13.1h-25.3v-13.4c0.5,0.1,1.1,0.2,1.6,0.2l0,0c3.4,0,6.1-2.9,5.9-6.4
				c-0.2-5.2-0.5-10.5-0.7-15.7s-0.5-10.4-0.7-15.7c-0.1-3.2-2.8-5.8-6.1-6.3v-5.9H450.8z M425.9,309.3h25v5.9
				c-0.4-0.1-0.7-0.1-1.1-0.1l0,0c-3.8,0-6.7,2.9-6.4,6.4c0.4,5.2,0.8,10.5,1.2,15.7c0.4,5.2,0.8,10.5,1.2,15.7
				c0.2,3,2.4,5.5,5.1,6.2v13.3h-25v-13.8c0.9,0.5,1.9,0.7,2.9,0.7l0,0c3.4,0,5.9-2.9,5.6-6.4c-0.5-5.2-1.1-10.5-1.6-15.7
				s-1.1-10.4-1.7-15.7c-0.3-2.7-2.4-5.1-5.2-6V309.3z M425.1,372.4c-15.2,0-20-7.4-21.7-17.3l-8-45.8h30.3v6.2
				c-0.8-0.3-1.6-0.4-2.4-0.4l0,0c-3.8,0-6.5,2.9-6,6.4c0.7,5.2,1.4,10.5,2.2,15.7c0.7,5.2,1.4,10.5,2.2,15.7c0.3,2.5,2,4.6,4.2,5.7
				v13.8L425.1,372.4L425.1,372.4z"/>
		</g>
		<g id="XMLID_136_">
			<polygon id="XMLID_140_" class="st4" points="162.9,461.9 190.4,461.9 190.4,382.4 162.9,409.8 			"/>
			<polygon id="XMLID_139_" class="st4" points="332.7,461.9 305.3,461.9 305.3,382.4 332.7,409.8 			"/>
			<polygon id="XMLID_138_" class="st5" points="162.9,409.8 190.4,382.4 305.3,382.4 332.7,409.8 			"/>
			<rect id="XMLID_137_" x="105.8" y="450.2" class="st5" width="284" height="273.4"/>
		</g>
		<g id="XMLID_132_">
			<path id="XMLID_135_" class="st6" d="M575.8,151.1h300.5c5.8,0,10.6,4.8,10.6,10.6v182.8c0,5.8-4.8,10.6-10.6,10.6H575.8
				c-5.8,0-10.6-4.8-10.6-10.6V161.7C565.1,155.8,569.9,151.1,575.8,151.1z"/>
			<rect id="XMLID_134_" x="565.1" y="294.3" class="st7" width="321.8" height="37.8"/>
			<path id="XMLID_133_" class="st7" d="M591,169.9h61.4c3.2,0,5.9,2.6,5.9,5.9v40.6c0,3.2-2.6,5.9-5.9,5.9H591
				c-3.2,0-5.9-2.6-5.9-5.9v-40.6C585.1,172.5,587.8,169.9,591,169.9z"/>
		</g>
		<path id="XMLID_131_" class="st8" d="M429.6,400h93c1.9,0,3.5,1.6,3.5,3.5v24.3c0,1.9-1.6,3.5-3.5,3.5h-93c-1.9,0-3.5-1.6-3.5-3.5
			v-24.3C426.1,401.6,427.7,400,429.6,400z"/>
		<g id="XMLID_128_">
			<rect id="XMLID_130_" x="458.9" y="445.4" class="st3" width="34.4" height="89.1"/>
			<polygon id="XMLID_129_" class="st3" points="476.1,570.1 517.7,515.8 434.5,515.8 			"/>
		</g>
	</g>
</g>
</svg>
