<?xml version="1.0" encoding="utf-8"?>
<!-- Generator: Adobe Illustrator 19.0.0, SVG Export Plug-In . SVG Version: 6.00 Build 0)  -->
<svg version="1.1" id="Layer_1" xmlns="http://www.w3.org/2000/svg" xmlns:xlink="http://www.w3.org/1999/xlink" x="0px" y="0px"
	 viewBox="94 -3.9 799.9 799.9" style="enable-background:new 94 -3.9 799.9 799.9;" xml:space="preserve">
<style type="text/css">
	.st0{fill:#FFEBBF;}
	.st1{fill:#335E59;}
	.st2{fill:#88C9C1;}
	.st3{font-family:'Arial-BoldMT';}
	.st4{font-size:65.9583px;}
	.st5{fill:#FFAE00;}
</style>
<g id="Layer_2">
	<g id="XMLID_126_">
		<g id="XMLID_153_">
			<g id="XMLID_158_">
				
					<rect id="XMLID_160_" x="140.2" y="205" transform="matrix(0.8604 -0.5096 0.5096 0.8604 -65.9436 197.0757)" class="st0" width="373.2" height="27.9"/>
				
					<rect id="XMLID_159_" x="447.1" y="205" transform="matrix(-0.8604 -0.5096 0.5096 -0.8604 1067.2863 730.2708)" class="st0" width="373.2" height="27.9"/>
			</g>
			<g id="XMLID_154_">
				<rect id="XMLID_157_" x="613.8" y="89.7" class="st0" width="25.3" height="125.1"/>
				<rect id="XMLID_156_" x="704.8" y="89.7" class="st0" width="25.3" height="181.6"/>
				<rect id="XMLID_155_" x="613.8" y="89.7" class="st0" width="116.3" height="25.3"/>
			</g>
		</g>
		<g id="XMLID_139_">
			<rect id="XMLID_152_" x="179" y="398.2" class="st1" width="602.4" height="273.8"/>
			<rect id="XMLID_151_" x="195.4" y="416.9" class="st2" width="569.8" height="236.4"/>
			<path id="XMLID_150_" class="st1" d="M696.6,398.2h84.9v84.9C734.6,483.1,696.6,445.1,696.6,398.2z"/>
			<path id="XMLID_149_" class="st1" d="M263.9,672.1H179v-84.9C225.9,587.2,263.9,625.2,263.9,672.1z"/>
			<path id="XMLID_148_" class="st1" d="M480.2,624.2c49,0,89-40,89-89s-40-89-89-89s-89,40-89,89S431.2,624.2,480.2,624.2z"/>
			<text id="XMLID_147_" transform="matrix(1 0 0 1 204.9127 485.5966)" class="st1 st3 st4">100</text>
			<text id="XMLID_146_" transform="matrix(1 0 0 1 645.6334 644.7456)" class="st1 st3 st4">100</text>
			<path id="XMLID_140_" class="st2" d="M494,480.2c4.8,1.3,8.7,3.5,11.9,6.5c4.4,4.2,7.2,9.8,8.5,16.9l-17.8,2.3
				c-0.5-2.5-1.3-4.6-2.5-6.4v-19.3H494z M494,524c8.1,2.8,13.8,6.1,17.1,10.1c4.1,4.9,6.1,11.1,6.1,18.7c0,8.5-2.6,15.7-7.7,21.5
				c-4,4.5-9.2,7.7-15.5,9.5V567c1-0.7,1.9-1.5,2.6-2.4c2.2-2.6,3.3-5.7,3.3-9.2c0-3.2-0.9-5.9-2.8-8.1c-0.8-1-1.9-1.9-3.2-2.7V524
				H494z M477.8,568.5V539c-1.6-0.5-3.1-1-4.6-1.5v-21.4c1.3,1,2.8,2,4.6,2.7v-24.4c-1.7,0.6-3.3,1.4-4.6,2.5v-17.2
				c1.5-0.3,3-0.6,4.6-0.7v-7H488v7c2.1,0.3,4.1,0.6,6,1.2v19.3c-1.5-2.2-3.4-3.8-6-4.9v27.6c2.1,0.6,4.1,1.2,6,1.8v20.5
				c-1.6-1-3.6-1.8-6-2.5v27.5c2.3-0.4,4.3-1.2,6-2.5v16.8c-1.9,0.5-3.9,1-6,1.3v13.2h-10.2v-12.9c-1.6-0.2-3.1-0.5-4.6-0.8v-19.4
				C474.6,566.6,476.2,567.7,477.8,568.5z M473.2,537.4c-6.9-2.6-12.2-6.1-15.8-10.5c-4.3-5.3-6.5-11.8-6.5-19.4
				c0-7.7,2.4-14.2,7.3-19.4c3.9-4.2,8.9-7,14.9-8.3V497c-0.8,0.7-1.5,1.4-2.1,2.3c-1.6,2.3-2.5,4.8-2.5,7.5c0,2.5,0.7,4.8,2.2,6.9
				c0.6,0.9,1.4,1.7,2.3,2.5v21.2H473.2z M473.2,584.6c-6.1-1.4-11.2-4.2-15.3-8.3c-5.1-5.1-8.3-12.2-9.7-21.5l18.4-2
				c0.7,3.8,2.2,7,4.2,9.7c0.8,1,1.5,1.9,2.4,2.7V584.6z"/>
		</g>
		<g id="XMLID_135_">
			<path id="XMLID_138_" class="st5" d="M503.5,315.8c29.7,0,54-24.2,54-54s-24.2-54-54-54c-29.7,0-54,24.2-54,54
				S473.8,315.8,503.5,315.8z"/>
			<path id="XMLID_137_" class="st0" d="M503.5,307.5c25.2,0,45.7-20.5,45.7-45.7s-20.5-45.7-45.7-45.7s-45.7,20.5-45.7,45.7
				S478.4,307.5,503.5,307.5z"/>
			<path id="XMLID_136_" class="st5" d="M487.9,270.8c2.5,2.9,5,5,7.5,6.5c2.6,1.4,5.2,2.1,7.8,2.1c2.2,0,4-0.6,5.4-1.9
				s2.1-2.8,2.1-4.7c0-2.1-0.6-3.6-1.8-4.7c-1.2-1.1-3.9-2.2-8.2-3.4c-6.5-1.8-11-4-13.7-6.7c-2.6-2.7-3.9-6.3-3.9-11
				c0-5.7,1.8-10.3,5.4-13.9c3.6-3.6,8.6-5.7,15.1-6.3v-6h5.6v5.9c2.5,0.3,5,0.8,7.4,1.8c2.4,0.9,4.8,2.2,7.2,3.7l-5.5,12.3
				c-1.9-1.6-3.9-2.9-6-3.7c-2-0.8-4.1-1.3-6.1-1.3c-2.1,0-3.8,0.5-5,1.4c-1.3,1-1.9,2.2-1.9,3.8s0.6,2.9,1.7,3.8
				c1.1,1,3.3,1.9,6.6,2.7l0.6,0.2c7.1,1.9,11.7,4,14,6.3c1.5,1.6,2.6,3.4,3.4,5.6c0.8,2.2,1.2,4.6,1.2,7.2c0,6-1.8,11-5.5,14.9
				c-3.6,4-8.5,6.2-14.6,6.9v10.5h-5.6v-10.3c-4.1-0.1-7.9-0.8-11.3-2.3s-6.7-3.7-9.9-6.8L487.9,270.8z"/>
		</g>
		<g id="XMLID_131_">
			<path id="XMLID_134_" class="st5" d="M437.5,376.9c29.7,0,54-24.2,54-54c0-29.7-24.2-54-54-54c-29.7,0-54,24.2-54,54
				C383.5,352.6,407.8,376.9,437.5,376.9z"/>
			<path id="XMLID_133_" class="st0" d="M437.5,368.6c25.2,0,45.7-20.5,45.7-45.7s-20.5-45.7-45.7-45.7s-45.7,20.5-45.7,45.7
				S412.3,368.6,437.5,368.6z"/>
			<path id="XMLID_132_" class="st5" d="M421.9,331.8c2.5,2.9,5,5,7.5,6.5c2.6,1.4,5.2,2.1,7.8,2.1c2.2,0,4-0.6,5.4-1.9
				s2.1-2.8,2.1-4.7c0-2.1-0.6-3.6-1.8-4.7c-1.2-1.1-3.9-2.2-8.2-3.4c-6.5-1.8-11-4-13.7-6.7c-2.6-2.7-3.9-6.3-3.9-11
				c0-5.7,1.8-10.3,5.4-13.9s8.6-5.7,15.1-6.3v-6h5.6v5.9c2.5,0.3,5,0.8,7.4,1.8c2.4,0.9,4.8,2.2,7.2,3.7l-5.5,12.3
				c-1.9-1.6-3.9-2.9-6-3.7c-2-0.8-4.1-1.3-6.1-1.3c-2.1,0-3.7,0.5-5,1.4c-1.3,1-1.9,2.2-1.9,3.8c0,1.6,0.6,2.9,1.7,3.8
				c1.1,1,3.3,1.9,6.6,2.7l0.6,0.2c7.1,1.9,11.7,4,14,6.3c1.5,1.6,2.6,3.4,3.4,5.6s1.2,4.6,1.2,7.2c0,6-1.8,11-5.4,14.9
				c-3.6,4-8.5,6.3-14.6,6.9v10.5h-5.6v-10.3c-4.1-0.1-7.9-0.8-11.3-2.3s-6.7-3.8-9.9-6.8L421.9,331.8z"/>
		</g>
		<g id="XMLID_127_">
			<path id="XMLID_130_" class="st5" d="M529.6,446.1c29.7,0,54-24.2,54-54c0-29.7-24.2-54-54-54c-29.8,0-54,24.2-54,54
				C475.7,421.8,499.9,446.1,529.6,446.1z"/>
			<path id="XMLID_129_" class="st0" d="M529.6,437.8c25.2,0,45.7-20.5,45.7-45.7s-20.5-45.7-45.7-45.7c-25.2,0-45.7,20.5-45.7,45.7
				C484,417.3,504.5,437.8,529.6,437.8z"/>
			<path id="XMLID_128_" class="st5" d="M514.1,401c2.5,2.9,5,5,7.5,6.5c2.6,1.4,5.2,2.1,7.8,2.1c2.2,0,4-0.6,5.4-1.9
				s2.1-2.8,2.1-4.7c0-2.1-0.6-3.6-1.8-4.7c-1.2-1.1-3.9-2.2-8.2-3.4c-6.5-1.8-11-4-13.7-6.7c-2.6-2.7-3.9-6.3-3.9-11
				c0-5.7,1.8-10.3,5.4-13.9c3.6-3.6,8.6-5.7,15.1-6.3v-6h5.6v5.9c2.5,0.3,5,0.8,7.4,1.8c2.4,0.9,4.8,2.2,7.2,3.7l-5.5,12.3
				c-1.9-1.6-3.9-2.9-6-3.7c-2-0.8-4.1-1.3-6.1-1.3c-2.1,0-3.8,0.5-5,1.4c-1.3,1-1.9,2.2-1.9,3.8c0,1.6,0.6,2.9,1.7,3.8
				c1.1,1,3.3,1.9,6.6,2.7l0.6,0.2c7.1,1.9,11.7,4,14,6.3c1.5,1.6,2.6,3.4,3.4,5.6c0.8,2.2,1.2,4.6,1.2,7.2c0,6-1.8,11-5.5,14.9
				c-3.6,4-8.5,6.2-14.6,6.9V433h-5.6v-10.3c-4.1-0.1-7.9-0.8-11.3-2.3c-3.4-1.5-6.7-3.8-9.9-6.8L514.1,401z"/>
		</g>
	</g>
</g>
</svg>
