<?xml version="1.0" encoding="utf-8"?>
<!-- Generator: Adobe Illustrator 19.0.0, SVG Export Plug-In . SVG Version: 6.00 Build 0)  -->
<svg version="1.1" id="Layer_1" xmlns="http://www.w3.org/2000/svg" xmlns:xlink="http://www.w3.org/1999/xlink" x="0px" y="0px"
	 viewBox="94 -3.9 799.9 799.9" style="enable-background:new 94 -3.9 799.9 799.9;" xml:space="preserve">
<style type="text/css">
	.st0{fill:#FFFFFF;}
	.st1{fill:#FFAE00;}
	.st2{fill:#71B8B0;}
	.st3{fill:#FFEBBF;}
	.st4{fill:#335E59;}
	.st5{fill:#5896CC;}
	.st6{fill:#FC6E4B;}
</style>
<g id="Layer_2">
	<g id="XMLID_32_">
		<g id="XMLID_34_">
			<g id="XMLID_47_">
				<g id="XMLID_49_">
					<rect id="XMLID_60_" x="243.5" y="191.6" class="st0" width="6.4" height="435"/>
					<rect id="XMLID_59_" x="311.6" y="191.6" class="st0" width="6.4" height="435"/>
					<rect id="XMLID_58_" x="379.8" y="191.6" class="st0" width="6.4" height="435"/>
					<rect id="XMLID_57_" x="447.9" y="191.6" class="st0" width="6.4" height="435"/>
					<rect id="XMLID_56_" x="516" y="191.6" class="st0" width="6.4" height="435"/>
					<rect id="XMLID_55_" x="584.1" y="191.6" class="st0" width="6.4" height="435"/>
					<rect id="XMLID_54_" x="652.2" y="191.6" class="st0" width="6.4" height="435"/>
					<rect id="XMLID_53_" x="720.4" y="191.6" class="st0" width="6.4" height="435"/>
					<rect id="XMLID_52_" x="788.5" y="191.6" class="st0" width="6.4" height="435"/>
					<rect id="XMLID_51_" x="177.5" y="600.9" class="st1" width="617.4" height="25.7"/>
					<rect id="XMLID_50_" x="177.5" y="191.6" class="st1" width="6.2" height="435"/>
				</g>
				<polygon id="XMLID_48_" class="st2" points="180,599.7 245.5,397.8 247.8,390.6 252.3,396.7 315.7,483 380.7,378 383.5,373.4 
					387,377.4 448.7,448.2 514.5,274.7 518.8,263.3 521.9,275.1 589.8,529.6 650.7,341.9 653.7,332.5 657.9,341.4 719.4,470.1 
					787.4,219.7 794.9,221.7 724.2,482.4 721.4,492.6 716.8,483 655.1,353.6 593.2,544.6 589.1,557.2 585.7,544.4 517.5,288.8 
					453.7,457.1 451.4,463.2 447.1,458.3 384.6,386.6 319.3,492 316.2,497 312.8,492.3 250.5,407.5 187.4,602.1 				"/>
			</g>
			<path id="XMLID_46_" class="st3" d="M567,471.3c74.9,0,136-61.1,136-136s-61.1-136-136-136s-136,61.1-136,136
				S492.1,471.3,567,471.3z"/>
			<g id="XMLID_43_">
				<path id="XMLID_45_" class="st0" d="M567.1,466.7V199.3H567c-4.9,0-9.8,0.3-14.6,0.8v265.4C557.3,466.1,562.2,466.5,567.1,466.7
					z"/>
				<path id="XMLID_44_" class="st2" d="M473.8,434.3L549,236l9.8-25.9l7.1,26.8L625,458.4c-3.3,1.6-6.7,3-10.1,4.3
					c-2.3,0.5-4.6,1-6.9,1.4l-52.3-195.8l-66.9,176.4c-3.8-2.1-7.6-4.4-11.3-6.8C476.3,436.7,475,435.5,473.8,434.3z"/>
			</g>
			<g id="XMLID_35_">
				<path id="XMLID_40_" class="st4" d="M687.6,242.8c-30.4-37.9-76.2-57.6-122.5-57.4v27.7c37.7-0.2,75,15.9,99.7,46.7
					c42.3,52.7,31.9,128.7-23.1,169.6c-22.8,17-49.8,25.3-76.6,25.4v27.7c32.9-0.1,66-10.3,94.1-31.2
					C726.9,400.9,739.6,307.6,687.6,242.8z M565.1,185.3c-32.9,0.2-66,10.3-94.1,31.2c-67.7,50.3-80.4,143.7-28.5,208.5
					c30.4,37.9,76.2,57.6,122.5,57.4v-27.7c-37.7,0.2-75-15.9-99.7-46.7l0,0c-42.3-52.7-31.9-128.6,23.2-169.6
					c22.8-17,49.8-25.3,76.5-25.4L565.1,185.3L565.1,185.3z"/>
				<polygon id="XMLID_39_" class="st4" points="349.3,519.8 323.9,488 443.1,399.3 468.5,431.1 				"/>
				<polygon id="XMLID_38_" class="st5" points="354,517.7 326.9,483.9 407.7,423.9 434.8,457.6 				"/>
				<path id="XMLID_37_" class="st6" d="M301,573.3c-15.6,11.6-37.9,8.9-49.9-6s-9-36.4,6.6-48l119.8-89.2c8.9-6.6,20-8.6,30.1-6.2
					l27.1,33.8c-0.2,10-5,19.9-13.9,26.5L301,573.3z"/>
				<path id="XMLID_36_" class="st6" d="M299.5,572c-14.6,10.9-35.6,8.3-46.8-5.7s-8.5-34.2,6.2-45.1l112.6-83.8
					c14.6-10.9,35.6-8.3,46.8,5.7c11.2,14,8.5,34.2-6.1,45.1L299.5,572z"/>
			</g>
		</g>
		<polygon id="XMLID_33_" class="st2" points="794.9,206.8 804.4,236.4 771.2,226.8 		"/>
	</g>
</g>
</svg>
