<?xml version="1.0" encoding="utf-8"?>
<!-- Generator: Adobe Illustrator 19.0.0, SVG Export Plug-In . SVG Version: 6.00 Build 0)  -->
<svg version="1.1" id="Layer_1" xmlns="http://www.w3.org/2000/svg" xmlns:xlink="http://www.w3.org/1999/xlink" x="0px" y="0px"
	 viewBox="111 -3.9 833.4 799.9" style="enable-background:new 111 -3.9 833.4 799.9;" xml:space="preserve">
<style type="text/css">
	.st0{fill:#335E59;}
	.st1{fill:#71B8B0;}
	.st2{fill:#D6FFFA;}
	.st3{fill:#FFDC8F;}
	.st4{fill:none;stroke:#FFFFFF;stroke-width:1.1999;stroke-miterlimit:22.9256;}
	.st5{fill:#FFFFFF;stroke:#FFDC8F;stroke-width:0.5669;stroke-miterlimit:22.9256;}
	.st6{fill:#FFAE00;stroke:#FFDC8F;stroke-width:0.5669;stroke-miterlimit:22.9256;}
	.st7{fill:#FFAE00;}
	.st8{fill:#FFCD60;}
	.st9{fill:#FFEBBF;}
	.st10{fill:#FFFFFF;}
	.st11{fill:#FFD5C9;}
	.st12{fill:#FC6E4B;}
	.st13{fill:#666666;}
</style>
<g id="Layer_2">
	<g id="XMLID_13_">
		<g id="XMLID_224_">
			<polygon id="XMLID_233_" class="st0" points="514.8,627.8 626.1,627.8 678.3,722.3 462.6,722.3 			"/>
			<path id="XMLID_232_" class="st0" d="M308.1,220.1h524.7c14.8,0,26.9,12.1,26.9,26.9v378c0,14.8-12.1,26.8-26.9,26.8H308.1
				c-14.8,0-26.8-12.1-26.8-26.8V247C281.2,232.2,293.3,220.1,308.1,220.1z"/>
			<g id="XMLID_228_">
				<path id="XMLID_231_" class="st1" d="M827.1,624.5c1.9,0,3.5,1.6,3.5,3.5s-1.6,3.5-3.5,3.5s-3.5-1.6-3.5-3.5
					S825.1,624.5,827.1,624.5z"/>
				<path id="XMLID_230_" class="st1" d="M813.4,624.5c1.9,0,3.5,1.6,3.5,3.5s-1.6,3.5-3.5,3.5s-3.5-1.6-3.5-3.5
					S811.5,624.5,813.4,624.5z"/>
				<ellipse id="XMLID_229_" class="st1" cx="799.8" cy="628" rx="3.5" ry="3.5"/>
			</g>
			<path id="XMLID_227_" class="st1" d="M250.2,693.7h640.4c7.9,0,14.3,6.4,14.3,14.3l0,0c0,7.9-6.4,14.3-14.3,14.3H250.2
				c-7.9,0-14.3-6.4-14.3-14.3l0,0C235.9,700.2,242.4,693.7,250.2,693.7z"/>
			<path id="XMLID_226_" class="st0" d="M905,708c0,7.9-6.4,14.3-14.3,14.3H250.2c-7.9,0-14.3-6.4-14.3-14.3H905z"/>
			<rect id="XMLID_225_" x="299.1" y="235.7" class="st2" width="542.8" height="368.1"/>
		</g>
		<g id="XMLID_186_">
			<polygon id="XMLID_223_" class="st3" points="383.8,75.8 703.5,75.8 757.1,129.4 757.1,75.8 757.1,603.8 383.8,603.8 			"/>
			<path id="XMLID_219_" class="st4" d="M690.7,450.3v66 M610.5,450.3v33 M448.5,450.3v103.5"/>
			<g id="XMLID_213_">
				<path id="XMLID_218_" class="st5" d="M683.3,303.4c21.8,0,39.5,17.7,39.5,39.5s-17.7,39.5-39.5,39.5s-39.5-17.7-39.5-39.5
					S661.5,303.4,683.3,303.4z"/>
				<path id="XMLID_217_" class="st5" d="M661.6,375.9c-5.7-3.7-10.3-8.9-13.4-15l35.2-18L661.6,375.9z"/>
				<path id="XMLID_216_" class="st5" d="M648.1,360.9c-2.8-5.4-4.3-11.5-4.3-18c0-12.6,5.9-23.9,15.2-31.1l24.4,31.1L648.1,360.9z"
					/>
				<path id="XMLID_215_" class="st5" d="M659,311.8c6.7-5.3,15.2-8.4,24.4-8.4v39.5L659,311.8z"/>
				<path id="XMLID_214_" class="st5" d="M683.3,303.4v39.5l28.2-27.7C704.3,307.9,694.4,303.4,683.3,303.4z"/>
			</g>
			<g id="XMLID_206_">
				<rect id="XMLID_212_" x="418" y="389.1" class="st6" width="181.4" height="17"/>
				<rect id="XMLID_211_" x="418" y="292" class="st5" width="32.2" height="97.1"/>
				<rect id="XMLID_210_" x="455.3" y="328.6" class="st5" width="32.2" height="60.5"/>
				<rect id="XMLID_209_" x="492.6" y="349.1" class="st5" width="32.2" height="40"/>
				<rect id="XMLID_208_" x="529.9" y="330.4" class="st5" width="32.2" height="58.8"/>
				<rect id="XMLID_207_" x="567.2" y="347.1" class="st5" width="32.2" height="42"/>
			</g>
			<rect id="XMLID_205_" x="646.3" y="389.1" class="st7" width="16.3" height="17"/>
			<rect id="XMLID_204_" x="670.1" y="389.1" class="st7" width="48.3" height="17"/>
			<g id="XMLID_197_">
				<rect id="XMLID_203_" x="479.8" y="132.4" class="st7" width="181.2" height="12.9"/>
				<rect id="XMLID_202_" x="418" y="164.6" class="st7" width="304.8" height="12.9"/>
				<rect id="XMLID_201_" x="418" y="187.1" class="st7" width="304.8" height="12.9"/>
				<rect id="XMLID_200_" x="418" y="209.7" class="st7" width="304.8" height="12.9"/>
				<rect id="XMLID_199_" x="418" y="232.3" class="st7" width="142.9" height="12.9"/>
				<polygon id="XMLID_198_" class="st7" points="703.5,129.4 757.1,129.4 703.5,75.8 				"/>
			</g>
			<rect id="XMLID_196_" x="418" y="440.5" class="st7" width="64.3" height="19.6"/>
			<rect id="XMLID_195_" x="498.4" y="440.5" class="st7" width="64.3" height="19.6"/>
			<rect id="XMLID_194_" x="578.4" y="440.5" class="st7" width="64.3" height="19.6"/>
			<rect id="XMLID_193_" x="658.6" y="440.5" class="st7" width="64.3" height="19.6"/>
			<rect id="XMLID_192_" x="418" y="473.5" class="st8" width="64.3" height="19.6"/>
			<rect id="XMLID_191_" x="418" y="506.5" class="st9" width="64.3" height="19.6"/>
			<rect id="XMLID_190_" x="418" y="539.5" class="st10" width="64.3" height="19.6"/>
			<rect id="XMLID_189_" x="578.4" y="473.5" class="st8" width="64.3" height="19.6"/>
			<rect id="XMLID_188_" x="658.6" y="473.5" class="st8" width="64.3" height="19.6"/>
			<rect id="XMLID_187_" x="658.6" y="506.5" class="st3" width="64.3" height="19.6"/>
		</g>
		<g id="XMLID_176_">
			<path id="XMLID_185_" class="st1" d="M747.6,553.9l-32.8,11.8l13.4-32.1l188.4-179.2c3.1-2.9,7.9-2.8,10.8,0.3l8.8,9.3
				c2.9,3.1,2.8,7.9-0.3,10.8L747.6,553.9z"/>
			<path id="XMLID_184_" class="st0" d="M747.6,553.9l-32.8,11.8l24-22.8l193-183.6l4.4,4.6c2.9,3.1,2.8,7.9-0.3,10.8L747.6,553.9z"
				/>
			<path id="XMLID_183_" class="st2" d="M747.6,553.9l-32.8,11.8l13.4-32.1l180.2-171.4c8,6,14.4,12.8,19.4,20.4L747.6,553.9z"/>
			<path id="XMLID_182_" class="st1" d="M747.6,553.9l-32.8,11.8l24-22.8L919,371.5c3.3,3.5,6.2,7.1,8.8,11L747.6,553.9z"/>
			<path id="XMLID_181_" class="st11" d="M747.6,553.9l-32.8,11.8l13.4-32.1L902,368.4c8.2,6,14.5,12.8,19.4,20.4L747.6,553.9z"/>
			<path id="XMLID_180_" class="st12" d="M747.6,553.9l-32.8,11.8l24-22.8l173.8-165.2c3.3,3.5,6.2,7.2,8.7,11.1L747.6,553.9z"/>
			<path id="XMLID_179_" class="st2" d="M747.6,553.9l-32.8,11.8l13.4-32.1c3.7,2.7,7.2,5.8,10.6,9.3
				C742.2,546.4,745.2,550.1,747.6,553.9z"/>
			<path id="XMLID_178_" class="st1" d="M747.6,553.9l-32.8,11.8l24-22.8C742.2,546.4,745.2,550.1,747.6,553.9z"/>
			<path id="XMLID_177_" class="st13" d="M725.7,561.8l-10.8,3.9l4.4-10.6c1.2,0.9,2.4,1.9,3.5,3.1
				C723.9,559.3,724.9,560.6,725.7,561.8z"/>
		</g>
		<g id="XMLID_14_">
			<rect id="XMLID_175_" x="119.6" y="702.7" class="st12" width="191.9" height="19.6"/>
			<path id="XMLID_172_" class="st12" d="M217.4,702.7h9.7v-19.8h-9.7h1.8v19.8H217.4z M207.7,702.7h9.7h-1.8v-19.8h1.8h-9.7V702.7z
				"/>
			<path id="XMLID_25_" class="st12" d="M246.3,573.2l34.8-168l-19-3.9l-15.8,76.2V514l23-111.1l4.5,0.9l-27.5,133V573.2z
				 M211.5,645.3l19,3.9l15.7-76.1v-36.5l-23,111.1l-4.5-0.9l27.5-133v-36.5L211.5,645.3z"/>
			<path id="XMLID_22_" class="st12" d="M542,290.1l-7.2-18l-120.4,48.3v8L537.5,279l1.7,4.3l-124.8,50.1v8L542,290.1z M414.4,320.4
				l-127.6,51.2l7.2,18l120.4-48.3v-8l-123.1,49.4l-1.7-4.3l124.8-50.1V320.4z"/>
			<path id="XMLID_21_" class="st12" d="M511.2,217.3c6.1-3.7,12.5-6.4,19.2-8.2l25.3,31c25.3-0.9,52.7,14.4,69.7,41.3
				c-18.4,9.3-37.4,19.7-56.5,31.3c-19.2,11.6-37.3,23.5-54.1,35.4c-15.9-27.6-16.7-58.9-4.1-80.9L495,230.4
				C499.7,225.4,505.1,221,511.2,217.3z"/>
			<path id="XMLID_18_" class="st12" d="M274.9,366.4c5.2,0,10.3,1.9,14.3,5.8c8.1,7.9,8.2,20.8,0.3,28.9c-4,4.1-9.3,6.1-14.6,6.1
				v-4c4.2,0,8.5-1.6,11.7-4.9c6.3-6.5,6.2-16.8-0.2-23.2c-3.2-3.1-7.3-4.7-11.5-4.7V366.4z M260.3,372.6c4-4.1,9.3-6.1,14.6-6.1v4
				c-4.2,0-8.5,1.6-11.7,4.9c-6.3,6.5-6.2,16.8,0.2,23.2c3.2,3.1,7.3,4.7,11.5,4.7v4c-5.2,0-10.3-1.9-14.3-5.8
				C252.5,393.6,252.4,380.6,260.3,372.6z"/>
			<path id="XMLID_15_" class="st12" d="M217.4,644.5c11.3,0,20.4,9.1,20.4,20.4c0,11.3-9.1,20.4-20.4,20.4l0,0v-4l0,0
				c9.1,0,16.4-7.3,16.4-16.4c0-9-7.3-16.4-16.4-16.4l0,0V644.5L217.4,644.5z M217.4,685.3c-11.3,0-20.4-9.1-20.4-20.4
				c0-11.3,9.1-20.4,20.4-20.4v4c-9,0-16.4,7.3-16.4,16.4c0,9,7.3,16.4,16.4,16.4V685.3z"/>
		</g>
	</g>
</g>
</svg>
