<?xml version="1.0" encoding="utf-8"?>
<!-- Generator: Adobe Illustrator 19.0.0, SVG Export Plug-In . SVG Version: 6.00 Build 0)  -->
<svg version="1.1" id="Layer_1" xmlns="http://www.w3.org/2000/svg" xmlns:xlink="http://www.w3.org/1999/xlink" x="0px" y="0px"
	 viewBox="94 -3.9 799.9 799.9" style="enable-background:new 94 -3.9 799.9 799.9;" xml:space="preserve">
<style type="text/css">
	.st0{fill:#335E59;}
	.st1{fill:#FFAE00;}
	.st2{fill:#D6FFFA;}
	.st3{fill:#71B8B0;}
	.st4{fill:#FFEBBF;}
	.st5{fill:#FFFFFF;}
	.st6{fill:#FC6E4B;}
	.st7{fill:#FFC1B2;}
</style>
<g id="Layer_2">
	<g id="XMLID_37_">
		<g id="XMLID_62_">
			<path id="XMLID_70_" class="st0" d="M248.3,188.6h504.4c10.3,0,18.7,8.4,18.7,18.7V526c0,10.3-8.4,18.7-18.7,18.7H248.3
				c-10.3,0-18.7-8.4-18.7-18.7V207.3C229.5,197,238,188.6,248.3,188.6z"/>
			<rect id="XMLID_69_" x="257.6" y="225.8" class="st1" width="485.7" height="260.7"/>
			<path id="XMLID_68_" class="st2" d="M500.5,214.6c3.8,0,6.8-3,6.8-6.8s-3.1-6.8-6.8-6.8c-3.8,0-6.8,3-6.8,6.8
				S496.7,214.6,500.5,214.6z"/>
			<rect id="XMLID_67_" x="489" y="502.7" class="st2" width="23" height="23"/>
			<polygon id="XMLID_66_" class="st2" points="229.5,544.7 771.4,544.7 865.6,606.4 135.4,606.4 			"/>
			<path id="XMLID_65_" class="st0" d="M135.4,606.4h730.2v21c0,7.4-6.1,13.5-13.5,13.5H148.9c-7.5,0-13.5-6.1-13.5-13.5V606.4z"/>
			<rect id="XMLID_64_" x="426.7" y="624.4" class="st2" width="147.5" height="9.4"/>
			<rect id="XMLID_63_" x="135.4" y="606.4" class="st2" width="730.2" height="10.5"/>
		</g>
		<g id="XMLID_50_">
			<polygon id="XMLID_61_" class="st3" points="243.4,554.5 757.6,554.5 820.9,596 180.1,596 			"/>
			<g id="XMLID_51_">
				<rect id="XMLID_60_" x="496.1" y="550.6" class="st2" width="7" height="49.5"/>
				<polygon id="XMLID_59_" class="st2" points="568.8,549.7 581.4,599.2 574.6,600.9 562.1,551.4 				"/>
				<polygon id="XMLID_58_" class="st2" points="630.8,549 655.5,598.5 649.3,601.6 624.5,552.1 				"/>
				<polygon id="XMLID_57_" class="st2" points="692,548.4 730.8,597.8 725.3,602.2 686.5,552.7 				"/>
				<rect id="XMLID_56_" x="209.8" y="561.8" class="st2" width="579.4" height="7"/>
				<polygon id="XMLID_55_" class="st2" points="437,551.4 424.5,600.9 417.7,599.2 430.3,549.7 				"/>
				<polygon id="XMLID_54_" class="st2" points="374.6,552.1 349.8,601.6 343.6,598.5 368.3,549 				"/>
				<polygon id="XMLID_53_" class="st2" points="312.6,552.7 273.8,602.2 268.3,597.8 307.1,548.4 				"/>
				<rect id="XMLID_52_" x="188.7" y="578.8" class="st2" width="631" height="7"/>
			</g>
		</g>
		<g id="XMLID_42_">
			<g id="XMLID_47_">
				<path id="XMLID_49_" class="st4" d="M377.1,265.1c56.8,0,49.1,98.8,0,98.8S320.3,265.1,377.1,265.1z"/>
				<path id="XMLID_48_" class="st4" d="M408.3,360.1c35.4,12.2,53.6,46.1,57.9,88.1H288c4.3-42,22.5-75.9,57.9-88.1
					c7.9,8.7,18.4,14.3,31.2,14.3C390,374.4,400.5,368.9,408.3,360.1z"/>
			</g>
			<path id="XMLID_46_" class="st5" d="M498.5,408h203.7c2.5,0,4.5,2,4.5,4.5v31.2c0,2.5-2,4.5-4.5,4.5H498.5c-2.5,0-4.5-2-4.5-4.5
				v-31.2C493.9,410,496,408,498.5,408z"/>
			<path id="XMLID_45_" class="st4" d="M495.7,381.2h78.7c1,0,1.7,0.8,1.7,1.7V395c0,1-0.8,1.7-1.7,1.7h-78.7c-1,0-1.7-0.8-1.7-1.7
				v-12.1C493.9,382,494.7,381.2,495.7,381.2z"/>
			<path id="XMLID_44_" class="st5" d="M498.5,319.1h203.7c2.5,0,4.5,2,4.5,4.5v31.2c0,2.5-2,4.5-4.5,4.5H498.5
				c-2.5,0-4.5-2-4.5-4.5v-31.2C493.9,321.1,496,319.1,498.5,319.1z"/>
			<path id="XMLID_43_" class="st4" d="M495.7,292.3h78.7c1,0,1.7,0.8,1.7,1.7v12.1c0,1-0.8,1.7-1.7,1.7h-78.7c-1,0-1.7-0.8-1.7-1.7
				V294C493.9,293.1,494.7,292.3,495.7,292.3z"/>
		</g>
		<g id="XMLID_38_">
			<path id="XMLID_41_" class="st6" d="M587.4,107.8h235.3c4.6,0,8.3,3.7,8.3,8.3v143.1c0,4.6-3.7,8.3-8.3,8.3H587.4
				c-4.6,0-8.3-3.7-8.3-8.3V116.1C579.1,111.5,582.8,107.8,587.4,107.8z"/>
			<rect id="XMLID_40_" x="579.1" y="219.9" class="st7" width="251.9" height="29.6"/>
			<path id="XMLID_39_" class="st7" d="M599.3,122.5h48.1c2.5,0,4.6,2.1,4.6,4.6v31.8c0,2.5-2.1,4.6-4.6,4.6h-48.1
				c-2.5,0-4.6-2.1-4.6-4.6v-31.8C594.8,124.6,596.8,122.5,599.3,122.5z"/>
		</g>
	</g>
</g>
</svg>
