<?xml version="1.0" encoding="utf-8"?>
<!-- Generator: Adobe Illustrator 19.0.0, SVG Export Plug-In . SVG Version: 6.00 Build 0)  -->
<svg version="1.1" id="Layer_1" xmlns="http://www.w3.org/2000/svg" xmlns:xlink="http://www.w3.org/1999/xlink" x="0px" y="0px"
	 viewBox="94 -3.9 799.9 799.9" style="enable-background:new 94 -3.9 799.9 799.9;" xml:space="preserve">
<style type="text/css">
	.st0{fill:#71B8B0;}
	.st1{fill:#A0DED7;}
	.st2{fill:#ED5C1B;}
	.st3{fill:#FFFDFA;}
	.st4{fill:#FFAE00;}
</style>
<g id="Layer_2">
	<g id="XMLID_2_">
		<g id="XMLID_9_">
			<path id="XMLID_89_" class="st0" d="M251.9,371.2c-0.8,4-1.6,8.1-2.2,12.2c-0.6,4.1-1.2,8.2-1.6,12.4c-0.8,8.3-1.3,16.7-1.3,25.3
				c0,8.5,0.4,16.9,1.3,25.3c0.4,4.2,0.9,8.3,1.6,12.4c0.6,4.1,1.3,8.1,2.2,12.2c0.8,4,1.7,8,2.8,11.9c2,7.9,4.4,15.6,7.2,23.2
				c1.4,3.8,2.9,7.5,4.4,11.2c1.6,3.7,3.2,7.3,4.9,10.9c0.9,1.8,1.8,3.6,2.7,5.4c1.8,3.6,3.7,7.1,5.7,10.5c6,10.3,12.6,20.2,20,29.6
				c3.7,4.7,7.5,9.2,11.5,13.6c2.6,2.9,5.4,5.8,8.2,8.6c2.8,2.8,5.7,5.5,8.6,8.2c13.2,12,27.6,22.5,43.1,31.4c3.5,2,7,3.9,10.5,5.7
				c7.1,3.6,14.4,6.9,21.9,9.9c3.7,1.5,7.5,2.9,11.4,4.2c24.9,8.4,51.5,13,79.2,13c18.9,0,37.3-2.1,55-6.1
				c8.3-1.9,16.4-4.2,24.3-6.8c3.8-1.3,7.6-2.7,11.4-4.2c7.5-2.9,14.8-6.2,21.9-9.9c3.5-1.8,7-3.7,10.5-5.7
				c15.5-8.9,30-19.5,43.2-31.4c2.9-2.7,5.8-5.4,8.6-8.2s5.5-5.7,8.2-8.6c4-4.4,7.8-8.9,11.5-13.6c5.8-7.4,11.2-15.1,16.1-23.1
				c1.3-2.1,2.6-4.3,3.9-6.4c2-3.5,3.9-6.9,5.7-10.5c0.9-1.8,1.8-3.6,2.7-5.4c1.7-3.6,3.4-7.2,4.9-10.9c1.6-3.7,3-7.4,4.4-11.2
				c2.8-7.6,5.2-15.3,7.2-23.2c1-3.9,1.9-7.9,2.8-11.9c0.8-4,1.5-8.1,2.2-12.2c0.6-4.1,1.1-8.2,1.6-12.4c0.8-8.3,1.3-16.7,1.3-25.3
				c0-8.5-0.4-17-1.3-25.3c-0.4-4.1-1-8.3-1.6-12.4s-1.4-8.1-2.2-12.2c-0.8-4-1.7-8-2.8-11.9c-2-7.9-4.4-15.6-7.2-23.2
				c-0.7-1.9-1.4-3.8-2.2-5.6c-2.2-5.6-4.6-11.1-7.2-16.5c-0.9-1.8-1.8-3.6-2.7-5.4c-1.8-3.6-3.7-7.1-5.7-10.5
				c-5.9-10.4-12.6-20.2-20-29.6c-3.7-4.7-7.5-9.2-11.5-13.6c-2.7-2.9-5.4-5.8-8.2-8.6s-5.7-5.5-8.6-8.2c-5.7-5.1-11.6-10-17.7-14.6
				c-8.1-6.1-16.6-11.7-25.4-16.8c-3.4-2-6.9-3.9-10.5-5.7c-1.6-0.8-3.2-1.6-4.9-2.4c-2-0.9-3.9-1.9-5.9-2.8
				c-0.8-0.4-1.7-0.7-2.5-1.1c-2.8-1.2-5.7-2.4-8.6-3.6c0,0-0.1,0-0.1-0.1c-3.1-1.2-6.2-2.3-9.3-3.4c-0.6-0.2-1.3-0.5-1.9-0.7
				c-7.3-2.5-14.8-4.6-22.4-6.4c-2.4-0.6-4.8-1.1-7.2-1.6c-1.7-0.4-3.5-0.7-5.2-1c-13-2.4-26.3-3.7-40-3.9c-1.5,0-3-0.1-4.5-0.1
				c-2.6,0-5.1,0.1-7.6,0.1c-25,0.8-49,5.2-71.6,12.9c-3.8,1.3-7.6,2.7-11.3,4.2c-1.1,0.5-2.3,0.9-3.5,1.4c-2.6,1.1-5.1,2.1-7.6,3.3
				c-3.7,1.6-7.2,3.4-10.8,5.2c-3.5,1.8-7,3.7-10.5,5.7c-13.9,8-26.9,17.3-38.9,27.7c-1.4,1.2-2.8,2.5-4.2,3.8
				c-2.9,2.7-5.8,5.4-8.6,8.2c-2.8,2.8-5.5,5.7-8.2,8.6c-4,4.4-7.8,8.9-11.5,13.6c-7.3,9.3-14,19.2-20,29.6c-2,3.4-3.9,7-5.7,10.5
				c-0.9,1.8-1.8,3.6-2.7,5.4c-2.6,5.4-5,10.9-7.2,16.5c-0.7,1.9-1.5,3.7-2.1,5.6c-2.8,7.6-5.2,15.3-7.2,23.2
				C253.7,363.2,252.7,367.2,251.9,371.2z"/>
			<path id="XMLID_10_" class="st1" d="M630.2,621.4V401.9c1.1,0.5,2.1,1,3.1,1.6c6.3,3.8,15.1,8.8,17.6,3.1
				c2.5-5.7,10.7-3.8,17.6-2.5c6.9,1.3,18.9,3.8,25.2,3.1c6.3-0.6,12.6-6.3,13.2-12c0.6-5.7-8.2-6.9-18.9-6.9s-15.1-1.9-13.2-8.2
				c1.9-6.3,5-12,10.7-14.5s10.7-3.8,16.4-3.8s13.2,4.4,20.2,3.8c6.9-0.6,4.4-6.9-2.5-10.7c-6.9-3.8-8.2-9.4-5-12.6
				c3.2-3.1,1.3-6.3-4.4-3.1c-5.7,3.1-13.9,11.3-15.7,6.3c-1.9-5-15.7-0.6-15.7,6.9c0,7.6,1.9,8.8-0.6,13.9c-2.5,5-8.2,8.8-13.2,8.2
				c-5-0.6,0.6,8.8-4.4,11.3s-7.6-3.8-10.7-10.1c-3.2-6.3-5.7-10.1-8.8-13.9s-5-5.7-9.4-9.4c-0.4-0.3-0.8-0.6-1.2-0.9v-52
				c1.4-0.4,3-0.6,4.9-0.6c6.9,0,12,5.7,17,1.3c5-4.4-3.8-12,3.8-12s13.9,0.6,8.2-5c-5.7-5.7,1.9-2.5,8.2-5.7
				c6.3-3.1,5.7-8.2-1.9-6.9c-7.6,1.3-13.9,5.7-17-1.9s6.3-16.4,11.3-22c1.1-1.3,1.3-2.4,1-3.2c1,0.9,1.9,1.9,2.9,2.8
				c2.8,2.8,5.5,5.7,8.2,8.6c4,4.4,7.8,8.9,11.5,13.6c7.3,9.3,14,19.2,20,29.6c2,3.4,3.9,6.9,5.7,10.5c0.9,1.8,1.8,3.6,2.7,5.4
				c2.6,5.4,5,10.9,7.2,16.5c0.7,1.9,1.5,3.7,2.2,5.6c2.8,7.6,5.2,15.3,7.2,23.2c1,3.9,1.9,7.9,2.8,11.9c0.8,4,1.5,8.1,2.2,12.2
				c0.6,4.1,1.1,8.2,1.6,12.4c0.8,8.3,1.3,16.7,1.3,25.3c0,8.5-0.4,17-1.3,25.3c-0.4,4.1-1,8.3-1.6,12.4s-1.4,8.1-2.2,12.2
				c-0.3,1.7-0.7,3.3-1.1,5l-0.2-0.5c-5.7-13.2-18.3-27.7-22.7-39.7s-8.8-19.5-13.2-18.9s5.7,23.3,10.1,31.5c4.4,8.2,9.4,21.4,17,29
				c2.4,2.4,4.8,4.3,7.3,5.8c-2,7.8-4.4,15.5-7.1,23c-1.4,3.8-2.9,7.5-4.4,11.2c-1.6,3.7-3.2,7.3-4.9,10.9c-0.9,1.8-1.8,3.6-2.7,5.4
				c-1.8,3.5-3.7,7-5.7,10.5c-1.3,2.2-2.5,4.3-3.9,6.4c-4.9,8-10.3,15.7-16.1,23.1c-3.7,4.7-7.5,9.2-11.5,13.6
				c-2.7,2.9-5.4,5.8-8.2,8.6s-5.6,5.5-8.6,8.2c-9,8.2-18.6,15.7-28.7,22.4C630.8,624.7,630.5,623,630.2,621.4L630.2,621.4z
				 M630.2,370.3c1,3,1.2,6.7,1.2,11.1c0,8.8,6.9-3.2,8.2-6.9c1.3-3.8,3.8-12.6-1.3-12.6c-3.9,0-5.5-1.1-8.1-3.7L630.2,370.3
				L630.2,370.3z M630.2,292.7c1-0.7,2-1.3,3.1-1.3c4.4,0,6.3-5.7,11.3-10.7s-4.4-11.3-1.9-18.3c2.5-6.9,10.1-10.1,12-17
				c1.2-4.2,6.5-4.9,9.4-3.6c-1.3-1.3-2.7-2.5-4-3.8c-5.7-5.1-11.6-10-17.7-14.6c-1.4-1.1-2.8-2.1-4.3-3.1c-2.6,2.1-5.3,4.8-7.8,7.6
				L630.2,292.7L630.2,292.7z M630.2,227.9v64.8c-3.1,2.3-5.6,6.6-7,1.9c-1.9-6.3-5.7-13.2-10.1-10.1c-4.4,3.2-3.8,13.9-9.4,5
				c-5.7-8.8-10.7-21.4-4.4-28.3c6.3-6.9,15.1-12.6,20.2-19.5C621.8,238.4,625.8,232.9,630.2,227.9L630.2,227.9z M630.2,299.6
				c-3.6,0.9-6.2,2.5-12.1,2.5c-8.2,0-5-5.7-10.1-5.7c-5,0-3.8,9.4-8.2,13.9c-3.8,3.8-10.1,8.7-16.7,11.1v50.5c3-1,3.9-6.8,2.2-13.1
				c-1.9-6.9,10.1-4.4,20.1-4.4c10.1,0,11.3,6.9,18.3,9.4c3.5,1.3,5.4,3.5,6.4,6.5v-12.1c-0.8-0.7-1.6-1.6-2.6-2.6
				c-4-4-1.2-6.5,2.6-4L630.2,299.6L630.2,299.6z M630.2,401.9v219.5c-0.7-4.4-0.8-8.8-3.9-13.3c-5.7-8.2-11.3-22.7-5.7-30.2
				c5.7-7.6,8.2-13.2,3.2-15.1c-5-1.9,2.5-10.7-4.4-15.1c-6.9-4.4-11.3-16.4-8.8-22c2.5-5.7,3.1-15.1-5-15.1c-6,0-14.8-3.4-22.3-4.2
				V386.2c3.7-1.4,7.5-2.9,13.5-2.9c12,0,20.8-4.4,19.5,5C615.2,396.5,623.8,399,630.2,401.9L630.2,401.9z M583.3,316.3V311
				c1.7-0.5,2.9,0.4,2.5,2.2C585.5,314.7,584.5,316.3,583.3,316.3z M583.3,311v5.3c-0.4,0-0.9-0.3-1.4-0.8c-1.7-2.1-1.6-3.5,0.7-4.1
				C582.8,311.2,583,311.1,583.3,311L583.3,311z M583.3,321.4v50.5c-0.3,0.1-0.6,0.2-1,0.2c-1,0-2.1,0.1-3.2,0.2v-49.7
				c0.4-0.1,0.8-0.2,1.3-0.3C581.4,322,582.3,321.7,583.3,321.4L583.3,321.4z M583.3,386.2v120.1c-1.4-0.1-2.8-0.2-4.1-0.1V387.7
				C580.6,387.2,581.9,386.7,583.3,386.2L583.3,386.2z M579.1,295.2v-5.3c1.7-0.5,2.9,0.4,2.5,2.2
				C581.3,293.6,580.3,295.2,579.1,295.2z M579.1,289.9v5.3c-0.4,0-0.9-0.3-1.4-0.8c-1.7-2.1-1.6-3.5,0.7-4.1
				C578.7,290.1,578.9,290,579.1,289.9L579.1,289.9z M579.1,322.6v49.7c-2.7,0.4-4.9,1.6-4.4,4.8c0.6,4.4-1.3,3.8-4.4,6.3
				c-1.5,1.2-3.4,2.5-5.6,3.3v-30.2c5.2-1.7,8.4-7.2,3.7-11.5c-5.7-5-3.8-12-0.6-17.6C570.8,322,572.6,323.9,579.1,322.6
				L579.1,322.6z M579.1,387.7v118.5c-1.1,0.1-2.2,0.3-3.1,0.5c-4.2,1.3-7.9,2.4-11.2,3.5V389.5c1.6-0.3,3.4-0.4,5.6-0.4
				C573.9,389,576.7,388.5,579.1,387.7L579.1,387.7z M564.7,322.7c2.2-1,4.7-1.8,7.3-1.8c9.3,0-0.7-15.7,0.7-20.6
				c1.4-4.8,0.8-16.7-8.1-16.5v38.9H564.7z M564.7,283.8v38.9c-5.5,2.4-9.4,5.6-10.5-1.1c-1.4-9.3-2.1-8.5,6.4-12.1
				s-3.6-26.3,2.8-25.6C564,283.9,564.4,283.8,564.7,283.8L564.7,283.8z M564.7,356.4v30.2c-2.4,0.8-5,0.9-7.6-0.8
				c-2.5-1.6-6.3-1.1-9.4-1v-29.2c5.7,0.1,7.2,1.3,13.8,1.3C562.6,356.9,563.7,356.7,564.7,356.4L564.7,356.4z M564.7,389.5v120.8
				c-3.2,1-6.1,1.9-8.9,2.8c-2.2,0.7-5-0.5-8.2-2.8V396c1.2-0.6,2.4-1,3.8-1.3C556.5,393.7,558.3,390.6,564.7,389.5L564.7,389.5z
				 M547.7,319.6c1.5-0.4,2.9-1.6,3.8-3.7c2.8-6.4,2.8-17.8-2.8-17.1c-0.3,0-0.6-0.1-0.9-0.1v20.9H547.7z M547.7,211.6v-7.4
				c0.5,0,1,0,1.6,0c5,0,8.5,8.5,2.1,8.5C550,212.7,548.8,212.3,547.7,211.6z M547.7,204.2v7.4C544.1,209.4,542.9,204.6,547.7,204.2
				L547.7,204.2z M547.7,298.8v20.8c-3.1,1-6.4-1.4-5.5-5.8C543.6,307.6,539,298.1,547.7,298.8L547.7,298.8z M547.7,355.6v29.2
				c-3.2,0.1-5.7-0.2-5.7-3.4c0-6.3-4.4-8.8-1.3-14.5s0-11.3,6.3-11.3L547.7,355.6L547.7,355.6z M547.7,396v114.3
				c-5-3.6-10.7-9.8-15.8-14.8c-3.7-3.7-8.7-8.2-12.6-12.6v-43.8c2.8-5.3,4.8-18.6,10.7-19.2c6.3-0.6,10.7-7.6,10.7-13.2
				C540.7,402.2,543.4,398.1,547.7,396L547.7,396z M519.3,403.7c1.2,0,2.2-1.6,2.5-3.1c0.4-1.8-0.8-2.7-2.5-2.2V403.7L519.3,403.7z
				 M519.3,254.9v-15.1c6.5,0.1,9.3,5.8,5.1,10.6C523.1,252,521.3,253.6,519.3,254.9z M519.3,239.9V255c-1.2,0.8-2.5,1.5-3.9,2.1
				v-16.6C516.8,240,518.1,239.8,519.3,239.9L519.3,239.9z M519.3,398.4v5.3c-0.4,0-0.9-0.3-1.4-0.8c-1.7-2.1-1.6-3.5,0.7-4.1
				C518.8,398.6,519.1,398.5,519.3,398.4L519.3,398.4z M519.3,439v43.8c-1.5-1.7-2.9-3.4-3.9-5v-9.2c4.9-4.6,2.7-6.2,0-9.4v-13.4
				c1-2.2,2.2-4.1,3.3-5.6C518.9,439.7,519.1,439.4,519.3,439L519.3,439z M515.4,419.2v-5.3c1.5-0.3,2.5,0.6,2.1,2.3
				C517.3,417.4,516.5,418.9,515.4,419.2z M515.4,240.4V257c-5,2-10.9,2.2-16.6-2.2l-0.5-0.4v-16.9c1-0.3,2.2-0.3,3.3,0.2
				c6.4,2.8,8.5,2.1,13.5,2.8L515.4,240.4L515.4,240.4z M515.4,413.8v5.3c-0.5,0.1-1.1-0.1-1.7-0.8c-1.7-2.1-1.6-3.5,0.7-4.1
				C514.7,414,515.1,413.9,515.4,413.8L515.4,413.8z M515.4,445.7v13.4c-0.4-0.4-0.8-0.9-1.1-1.4
				C512.2,454.7,513.4,449.9,515.4,445.7L515.4,445.7z M515.4,468.5v9.2c-2.2-3.5-2.9-6.6-0.5-8.8L515.4,468.5L515.4,468.5z
				 M498.3,182.3V174h0.1c1.5,0,3.1,0.1,4.6,0.1c0,1.6-0.4,3.5-2.3,5.4C499.7,180.5,499,181.4,498.3,182.3L498.3,182.3z
				 M507.3,401.6c2-1.1,3.6-0.1,3.2,1.9s-2.1,4.4-3.9,2.3C504.9,403.6,505,402.2,507.3,401.6z M371.7,319.3c0.4,0,0.8,0,1.2,0
				c7.1,0,1.9-5-1.2-9.4V319.3L371.7,319.3z M498.3,174v8.3c-3.3,4.5-3.2,7.4-10.2,7.4c-8.4,0,10.2,13.1,0.6,13.1s-12.5,11.9-3,10.7
				c9.6-1.2,9,3-1.2,7.8s-26.3,4.8-31.1,12.5c-4.8,7.8-22.7,7.2-22.7,14.3c0,7.2-3,33.4-16.7,28.7c-13.7-4.8-16.7-18.5-22.1-26.9
				s3-17.3-2.4-20.3s11.9-16.7,6-12.5c-6,4.2-15.5-1.8-7.2-3.6c8.4-1.8,5.4-10.1-0.6-8.4c-4.5,1.4-9.3,0-8.1-3.3l1.8-0.9
				c3.6-1.8,7.2-3.6,10.8-5.2c2.5-1.1,5.1-2.2,7.6-3.3c1.2-0.5,2.3-1,3.5-1.4c3.7-1.5,7.5-2.9,11.3-4.2
				c22.6-7.6,46.6-12.1,71.6-12.9c2.6-0.1,5.1-0.1,7.6-0.1C495.4,173.9,496.9,174,498.3,174L498.3,174z M498.3,237.4
				c-4.8,1.5-7.6,10.5,0,16.9V237.4L498.3,237.4z M371.7,635.7V499.1c6.6,4.6,12.4,8.9,18,8.9c7.8,0,6.6,7.8,6.6,15.5
				c0,7.8,10.2,7.8,20.9,11.3c10.7,3.6,15.5,3,26.3,9.6c10.7,6.6,13.1,10.1,7.8,17.9c-5.4,7.8-16.7,19.7-17.3,31.1
				c-0.6,11.3-7.8,22.1-15.5,23.3c-7.8,1.2-14.9,7.2-14.9,12.5c0,5.4-7.2,3-7.8,13.1c-0.1,1.6-0.4,3.3-0.9,5
				c-4.5-2-8.9-4.1-13.2-6.3C378.2,639.3,374.9,637.6,371.7,635.7L371.7,635.7z M371.7,339.5v-17.4c0.4,0,0.8,0.1,1.3,0.1
				c9.4-0.4,10.7,6.7,13.4,12.5c2.7,5.8,0.9,11.6-8.1,7.6C375.7,341.1,373.5,340.3,371.7,339.5z M351.3,327c1.7,1.5,2.7,2.1,4.3-0.6
				c2.3-4,6.8-6.9,16.1-7.1v-9.5c-1.3-1.9-2.3-3.6-1.7-4.9c1.8-4.2-7.2-6-11.9-10.7c-3.5-3.5-3.8-12-6.7-16.6L351.3,327L351.3,327z
				 M371.7,322v17.4c-4.4-1.9-6.2-3.7-3.6-9.7C371.3,322,367.8,321.7,371.7,322L371.7,322z M371.7,499.1v136.6l-0.7-0.4
				c-6.8-3.9-13.3-8.1-19.7-12.6V489.5c3.7,0.5,7.7,1.6,12.1,4.2C366.3,495.4,369,497.3,371.7,499.1L371.7,499.1z M351.3,354.2v-7.7
				c4.8-0.3,5.7,7.8,1.1,7.8C352,354.3,351.6,354.3,351.3,354.2L351.3,354.2z M351.3,242.4v-7.5
				C353.4,238.3,353.7,241.7,351.3,242.4z M343.5,347c0.2-0.3,0.5-0.6,0.7-0.9c3.3-4.2,2.1-8.6-0.7-11.9V347L343.5,347z
				 M343.5,323.5c1.8-0.2,3.4-0.1,4.3,0.6c1.5,1,2.5,2.2,3.5,3v-49.5c-1.1-1.7-2.5-2.9-4.7-3.1c-1.4-0.1-2.4,0-3.1,0.3V323.5
				L343.5,323.5z M351.3,235v7.5c-0.7,0.2-1.7,0.2-2.9-0.2c-1.8-0.5-3.5-0.8-4.9-0.8v-12.6c0.2,0.1,0.5,0.2,0.7,0.3
				C347.3,230.2,349.8,232.5,351.3,235L351.3,235z M351.3,346.5v7.7c-4.2-0.9-6.1-6.7-1.2-7.5C350.5,346.6,350.9,346.5,351.3,346.5
				L351.3,346.5z M351.3,489.5v133.2c-2.6-1.9-5.2-3.8-7.8-5.7V489.3C345.9,489.2,348.5,489.2,351.3,489.5L351.3,489.5z
				 M343.5,463.5v-1.6C344.1,462.6,344.2,463.2,343.5,463.5L343.5,463.5z M343.5,357.1c0.3,0.1,0.5,0.1,0.8,0.1c3.4,0,2.8-6-0.8-5.8
				V357.1L343.5,357.1z M343.5,262.9v-11.1C346.9,256.2,346,260.7,343.5,262.9z M332.1,355.1c3.5-1.7,7.5-3.5,11.4-8.1v-12.7
				c-2.8-3.3-7.1-5.5-10-5.5c-4.6,0,4-4.6,10-5.4v-48.7c-3,1.2-0.4,5.4-5.2,6.9c-2.7,0.8-4.7,0.6-6.2-0.2V355.1L332.1,355.1z
				 M343.5,228.8v12.6c-5.4-0.1-7.8,2.9-1.7,8.6c0.6,0.6,1.2,1.2,1.7,1.8v11.1c-1.4,1.2-3.3,1.6-5.2,0.9c-1.4-0.6-3.6-1.4-6.2-2.4
				v-27c2.9-2.6,5.9-5,9-7.5C341.8,227.7,342.5,228.3,343.5,228.8L343.5,228.8z M343.5,351.4v5.7c-3.1-0.7-4.5-4.9-0.9-5.6
				C343,351.5,343.2,351.4,343.5,351.4L343.5,351.4z M343.5,462v1.6c-0.5,0.3-1.5,0.4-3.1,0.4c-7.1-0.3-11.7-4.6-2.8-4
				C340.1,459.9,342.5,460.9,343.5,462L343.5,462z M343.5,489.3V617c-3.9-3-7.7-6.1-11.4-9.3V489.9c2.4-0.1,4.8-0.4,6.8-0.4
				C340.3,489.5,341.8,489.4,343.5,489.3z M322.5,364.4c1.1-2,2.2-4.1,3.9-5.7c1.6-1.6,3.5-2.5,5.8-3.6v-73.7
				c-1.8-1.1-2.8-3.3-2.8-6.3c0-2.3-2.8-5.5-6.9-8.3V364.4L322.5,364.4z M332.1,234.4v27c-2.8-1.1-6.2-2.2-9.6-3.4v-14.8
				c1.8-1.7,3.6-3.4,5.4-5C329.2,236.9,330.6,235.6,332.1,234.4L332.1,234.4L332.1,234.4z M332.1,489.9v117.8
				c-1.4-1.2-2.8-2.5-4.2-3.8c-1.8-1.7-3.6-3.3-5.4-5.1V488C324.7,490,328.4,490.1,332.1,489.9L332.1,489.9z M322.5,462.9v-8.2
				c0.6,0,1.2-0.1,1.9-0.1c5.3-0.3,4.6,8.3-0.9,8.3C323.1,463,322.8,463,322.5,462.9z M302.1,395c1.6-1.4,2.7-2.9,2.7-4.6
				c0-5.4,3.6-20.3,10.2-20.3c4,0,5.8-2.6,7.5-5.6v-97.7c-4.6-3.3-10.8-6.2-16-6.6c-1.5,1.7-2.9,3.5-4.4,5.2V395L302.1,395z
				 M322.5,243.2V258c-3.8-1.2-7.7-2.4-11.3-3.2c2.6-2.9,5.3-5.7,8.1-8.5C320.3,245.3,321.4,244.2,322.5,243.2L322.5,243.2z
				 M322.5,454.7v8.2C317.5,462.1,313,455.5,322.5,454.7L322.5,454.7z M322.5,488v110.8c-0.6-0.6-1.3-1.2-1.9-1.9
				c-2.6-3.1-5.6-7.2-9-9.4l-0.4-0.5c-3.1-3.4-6.1-6.9-9-10.4v-86.5c2.6,0.1,5,0,6.9-1.2c4.8-3,9.6-9,11.9-3
				C321.3,486.8,321.8,487.5,322.5,488L322.5,488z M302.1,452.2v-4.8c4.9,0.9,7.8,5.1,2.5,5.1C303.7,452.5,302.9,452.4,302.1,452.2
				L302.1,452.2z M302.1,437.6V431c5.4,2.8,8.9,10.1,4.6,7.6C305,437.5,303.5,437.4,302.1,437.6z M286.9,427.3c2,1,3-0.6,3-5.3
				c0-8.4-2.4-13.1,0.6-17.9c2.1-3.3,8.1-6,11.6-9.1V265.3c-0.8,1-1.7,2.1-2.5,3.1c-1.8,2.3-3.6,4.7-5.4,7.1
				c0.2,2.1,0.7,4.2,1.1,6.1c1.8,8.4,6,14.3,1.2,14.3c-4.8,0-4.8,7.2-5.4,18.5c-0.3,5.7-2.3,4.9-4.2,2L286.9,427.3L286.9,427.3z
				 M302.1,431v6.6c-2.7,0.4-4.8,2.2-7.1,1c-3.4-1.9-2.5-7.7,3.1-8.7C299.5,429.9,300.8,430.3,302.1,431L302.1,431z M302.1,447.4
				v4.8c-4.9-1.1-7.8-5-2.5-5C300.5,447.2,301.3,447.2,302.1,447.4L302.1,447.4z M302.1,490.1v86.6l-0.3-0.4c0-0.7,0-1.4,0-2
				c0-4.7-10-12.5-14.9-19.2v-25.3c0.2-0.1,0.4-0.2,0.6-0.3c6.6-3,3.6-11.9,10.1-13.7c6.6-1.8,2.4-9,0-13.7
				c-1.3-2.5-6.1-2.4-10.7-2.4v-9.3c1.4,0.3,2.8,0.3,4.2-0.2C294,489,298.2,489.9,302.1,490.1L302.1,490.1z M286.9,446.2V440
				c5.4,1.2,8.3,7.2,2.2,6.6C288.4,446.5,287.6,446.4,286.9,446.2z M251.9,371.2c-0.8,4-1.6,8.1-2.2,12.2c-0.6,4.1-1.2,8.2-1.6,12.4
				c-0.7,6.7-1.1,13.5-1.2,20.4c2.9,0.2,5.8,0.3,8.3-0.7c6-2.4,17.3-5.4,24.5,4.2c3.2,4.2,5.5,6.8,7.2,7.7V316.5
				c-1.8-2.8-3.6-7.7-3.6-10.4c0-2.2-2-4-5.2-5.5c-1.5,2.6-2.9,5.3-4.2,7.9c-0.9,1.8-1.8,3.6-2.7,5.4c-2.6,5.4-5,10.9-7.2,16.5
				c-0.7,1.9-1.5,3.7-2.1,5.6c-2.8,7.6-5.2,15.3-7.2,23.2C253.7,363.2,252.7,367.2,251.9,371.2L251.9,371.2z M286.9,440v6.2
				c-5.5-1.7-8.4-7.2-1.8-6.4C285.7,439.8,286.3,439.9,286.9,440L286.9,440z M286.9,490.3c-3.7-0.9-7.6-4.2-10.2-8.6
				c-3.6-6,2.4-12.5-6.6-12.5s-2.7-20-2.7-26c0-5.7-12.1,4.5-18.5,10.7c0.2,1.6,0.4,3.2,0.7,4.7c0.6,4.1,1.3,8.1,2.2,12.2
				c0.3,1.5,0.6,3,0.9,4.4c3.3,1.9,6.6,3.5,10.8,3.5c10.2,0,10.7,13.7,13.7,18.5c1.4,2.2,5.4,2.4,9.6,2.4v-9.3H286.9z M286.9,529.8
				v25.3c-0.7-1-1.4-1.9-1.8-2.9C281.6,545.2,281,533.2,286.9,529.8z"/>
		</g>
		<g id="XMLID_6_">
			<path id="XMLID_8_" class="st2" d="M552.8,70c-54.9,0-99.4,44.5-99.4,99.4c0,11.7,3.1,27.7,7.6,38.1l91.8,212.9l92.2-214
				c4-9.4,7.1-25.4,7.1-37.1C652.1,114.4,607.7,70,552.8,70z"/>
			<path id="XMLID_7_" class="st3" d="M552.8,250.9c44.9,0,81.6-36.6,81.6-81.6s-36.6-81.6-81.6-81.6c-44.9,0-81.6,36.6-81.6,81.6
				S507.9,250.9,552.8,250.9z"/>
		</g>
		<g id="XMLID_3_">
			<path id="XMLID_5_" class="st4" d="M336.7,313.9c-31.9,0-57.7,25.8-57.7,57.7c0,6.8,1.8,16.1,4.4,22.1l53.3,123.7l53.6-124.3
				c2.3-5.4,4.1-14.8,4.1-21.5C394.4,339.7,368.6,313.9,336.7,313.9z"/>
			<path id="XMLID_4_" class="st3" d="M336.7,419c26.1,0,47.4-21.3,47.4-47.4s-21.3-47.4-47.4-47.4s-47.4,21.3-47.4,47.4
				C289.3,397.7,310.6,419,336.7,419z"/>
		</g>
	</g>
</g>
</svg>
