<?xml version="1.0" encoding="utf-8"?>
<!-- Generator: Adobe Illustrator 19.0.0, SVG Export Plug-In . SVG Version: 6.00 Build 0)  -->
<svg version="1.1" id="Layer_1" xmlns="http://www.w3.org/2000/svg" xmlns:xlink="http://www.w3.org/1999/xlink" x="0px" y="0px"
	 viewBox="94 -3.9 799.9 799.9" style="enable-background:new 94 -3.9 799.9 799.9;" xml:space="preserve">
<style type="text/css">
	.st0{fill:#335E59;}
	.st1{fill:#71B8B0;}
	.st2{fill:#FFFDFA;}
	.st3{fill:#FFAE00;}
	.st4{fill:#FFEBBF;}
	.st5{fill:#D6FFFA;}
	.st6{fill:#FC6E4B;}
</style>
<g id="Layer_2">
	<g>
		<g>
			<polygon class="st0" points="468.7,615.8 580,615.8 632.2,710.3 416.5,710.3 			"/>
			<path class="st0" d="M262,208h524.7c14.8,0,26.8,12.1,26.8,26.8v378c0,14.8-12.1,26.8-26.8,26.8H262c-14.8,0-26.8-12.1-26.8-26.8
				v-378C235.1,220.1,247.2,208,262,208z"/>
			<g>
				<circle class="st1" cx="781" cy="616" r="3.5"/>
				<circle class="st1" cx="767.3" cy="616" r="3.5"/>
				<path class="st1" d="M753.7,612.5c1.9,0,3.5,1.6,3.5,3.5s-1.6,3.5-3.5,3.5s-3.5-1.6-3.5-3.5S751.8,612.5,753.7,612.5z"/>
			</g>
			<path class="st1" d="M204.1,681.7h640.4c7.9,0,14.3,6.4,14.3,14.3l0,0c0,7.9-6.4,14.3-14.3,14.3H204.1c-7.9,0-14.3-6.4-14.3-14.3
				l0,0C189.9,688.1,196.3,681.7,204.1,681.7z"/>
			<path class="st0" d="M858.8,696c0,7.9-6.4,14.3-14.3,14.3H204.1c-7.9,0-14.3-6.4-14.3-14.3H858.8z"/>
			<rect x="253" y="223.7" class="st2" width="542.8" height="368.1"/>
		</g>
		<path class="st1" d="M519.2,276.6c4.1,0,8.3,0.2,12.5,0.7l5.7-18.6l39.2,11.9l-5.7,18.6c14.2,7.4,26.4,17.5,36,29.6l17.1-9.1
			l19.3,36.2l-17.1,9.1c4.7,14.7,6.3,30.5,4.5,46.4l18.6,5.7l-11.9,39.2l-18.6-5.7c-7.4,14.2-17.5,26.4-29.6,36l9.1,17.1L562.1,513
			l-9.1-17.1c-10.8,3.4-22.3,5.3-33.9,5.2v-29.4c35.5,0,68.4-23,79.3-58.8c13.3-43.8-11.4-90.1-55.2-103.4c-8-2.4-16.1-3.6-24.1-3.6
			v-29.3H519.2z M449.2,301.1l-9.1-17.1l36.1-19.3l9.2,17.1c10.8-3.4,22.3-5.3,33.9-5.2V306c-35.5,0-68.4,23-79.3,58.8
			c-13.3,43.8,11.4,90.1,55.2,103.4l0,0c8,2.4,16.1,3.6,24.1,3.6v29.3c-4.1,0-8.3-0.2-12.5-0.7l-5.7,18.6l-39.2-11.9l5.7-18.6
			c-14.2-7.4-26.4-17.5-36-29.6l-17.1,9.1l-19.3-36.2l17.1-9.1c-4.7-14.7-6.3-30.5-4.5-46.4l-18.6-5.7l11.9-39.2l18.6,5.7
			C427,322.9,437.1,310.8,449.2,301.1z"/>
		<g>
			
				<rect x="327.3" y="124.3" transform="matrix(0.5626 -0.8268 0.8268 0.5626 -74.969 424.702)" class="st3" width="73.1" height="317.8"/>
			<polygon class="st4" points="231.8,220.2 471,383 496,346.1 256.9,183.4 			"/>
			<path class="st3" d="M173.1,97.5c27.1-12.2,59.8-10.5,86.3,7.5c40.4,27.5,50.9,82.5,23.4,122.9s-82.5,50.9-122.9,23.4
				c-26.4-18-40-47.8-38.6-77.5l41.4,28.2l22,15l24-11.6l24-11.6l2-26.6l2-26.6l-22-15L173.1,97.5z"/>
			<path class="st3" d="M606.7,392.6c1.4-29.8-12.2-59.5-38.6-77.5c-40.4-27.5-95.4-17-122.9,23.4s-17,95.4,23.4,122.9
				c26.4,18,59.1,19.7,86.3,7.5l-41.4-28.1l-22-15l2-26.6l2-26.6l24-11.6l24-11.6l22,15L606.7,392.6z"/>
			<path class="st4" d="M587.9,362.6c-5.3-14.3-14.9-26.9-27.9-35.7c-33.9-23.1-80.1-14.3-103.1,19.6
				c-23.1,33.9-14.3,80.1,19.6,103.1c13,8.9,28.3,13.2,43.5,12.9l-43.5-29.6l5.1-69.5l62.8-30.3L587.9,362.6z"/>
			<path class="st4" d="M139.3,203.4c5.3,14.3,14.9,26.9,27.9,35.7c33.9,23.1,80.1,14.3,103.1-19.6c23.1-33.9,14.3-80.1-19.6-103.1
				c-13-8.9-28.3-13.2-43.5-12.9l43.5,29.6l-5.1,69.5l-62.8,30.3L139.3,203.4z"/>
		</g>
		<path class="st5" d="M692.9,419.1l-10.4-24.2l51.1-22l10.4,24.2c16.7-3.8,34.2-4.8,51.7-2.7v40.2c-51-8.3-102.7,19.4-122.6,69.4
			c-11.7,29.4-10.2,60.9,1.8,87.7h-69.3l-0.9-2l24.2-10.4c-4.6-20.4-5.1-41.9-0.8-63.3l-24.5-9.8l20.6-51.7l24.5,9.8
			C660.4,446,675.5,430.7,692.9,419.1z"/>
		<path class="st5" d="M253.1,465.3l-0.2-0.3v-21.6l27.2-14.5l9.2,17.1c14.7-4.7,30.5-6.3,46.4-4.5l5.7-18.6l39.2,11.9l-5.7,18.6
			c14.2,7.4,26.4,17.5,36,29.6l17.1-9.1l19.3,36.2l-17.1,9.1c4.7,14.7,6.3,30.5,4.5,46.4l18.6,5.7l-6.3,20.6h-50.6
			c2.4-4.6,4.4-9.5,6-14.6c13.3-43.8-11.4-90.1-55.2-103.4c-36.6-11.1-74.9,4.3-94.3,35.2v-43.5L253.1,465.3z"/>
		<path class="st6" d="M652.8,387.7c11.7,0,23.5,2.3,34.7,7.1l8.5-12.7l26.7,17.9l-8.5,12.7c9,8.8,15.8,19.2,20.3,30.4l14.9-3
			l6.3,31.5l-14.9,3c0.2,12.1-2.2,24.3-7.1,35.9l12.7,8.5l-17.9,26.7l-12.7-8.5c-8.8,9-19.2,15.8-30.4,20.3l3,15l-31.5,6.3l-3-14.9
			h-1.1v-23c21,0,41.6-10.2,54.1-28.9c20-29.9,11.9-70.2-18-90.2c-11.1-7.4-23.7-11-36.1-11V387.7z M620.2,394l-3-14.9l31.5-6.3
			l3,15h1.1v23c-21,0-41.6,10.2-54.1,28.9c-19.9,29.9-11.9,70.2,18,90.2l0,0c11.1,7.4,23.7,11,36.1,11v23c-11.7,0-23.5-2.3-34.7-7.1
			l-8.5,12.7l-26.7-17.9l8.5-12.7c-9-8.8-15.8-19.2-20.3-30.4l-15,3l-6.3-31.5l14.9-3c-0.2-12.1,2.2-24.3,7.1-35.9l-12.7-8.5
			l17.9-26.7l12.7,8.5C598.5,405.3,608.9,398.5,620.2,394z"/>
	</g>
</g>
</svg>
